<?xml version="1.0" encoding="UTF-8"?>
<svg width="108px" height="108px" viewBox="0 0 108 108" version="1.1" xmlns="http://www.w3.org/2000/svg" xmlns:xlink="http://www.w3.org/1999/xlink">
    <title>1</title>
    <defs>
        <polygon id="path-1" points="0.0688072727 0 34.4893891 0 34.4893891 31.42584 0.0688072727 31.42584"></polygon>
        <polygon id="path-3" points="0.813338182 0.727018182 33.3818182 0.727018182 33.3818182 20.8444727 0.813338182 20.8444727"></polygon>
    </defs>
    <g id="2021" stroke="none" stroke-width="1" fill="none" fill-rule="evenodd">
        <g id="GUEST_PC_Main" transform="translate(-381.000000, -279.000000)">
            <g id="1" transform="translate(381.000000, 279.000000)">
                <rect id="Rectangle-2" fill="#F6F6F6" x="0" y="0" width="108" height="108" rx="31.4181818"></rect>
                <g id="icon_1_m" transform="translate(23.563636, 23.563636)">
                    <path d="M46.55232,13.9127564 C46.55232,10.9221382 44.95392,8.30264727 42.5543564,6.81421091 C41.5352291,3.29733818 38.2461382,0.719083636 34.3365382,0.719083636 C32.7990109,0.719083636 31.3596655,1.12359273 30.1107927,1.82068364 C29.0465018,1.12555636 27.7721018,0.719083636 26.3955927,0.719083636 C23.7113018,0.719083636 21.4001018,2.27035636 20.3259927,4.50497455 C16.4654836,5.31792 13.5710836,8.68162909 13.5710836,12.7129745 C13.5710836,14.8886836 14.4193745,16.8621382 15.7998109,18.3545018 C15.1577018,19.5326836 14.7924655,20.8777745 14.7924655,22.3092655 C14.7924655,26.9473745 18.6195927,30.7057745 23.3421382,30.7057745 C25.7102836,30.7057745 27.8545745,29.7593018 29.40192,28.2315927 C31.2202473,29.7710836 33.5825018,30.7057745 36.1686109,30.7057745 C41.9024291,30.7057745 46.55232,26.14032 46.55232,20.5105745 C46.55232,19.2950836 46.3245382,18.1345745 45.9278836,17.0545745 C46.3265018,16.0825745 46.55232,15.0241745 46.55232,13.9127564" id="Fill-1" fill="#FFC800"></path>
                    <g id="Group-5" transform="translate(12.781818, 0.000196)">
                        <mask id="mask-2" fill="white">
                            <use xlink:href="#path-1"></use>
                        </mask>
                        <g id="Clip-4"></g>
                        <path d="M16.6202982,27.5123127 C16.7852436,27.5123127 16.9501891,27.5692582 17.08568,27.6831491 C18.8411709,29.1676582 21.0797164,29.9864945 23.3869891,29.9864945 C28.7162982,29.9864945 33.0520073,25.7352218 33.0520073,20.5099855 C33.0520073,19.4299855 32.8556436,18.3499855 32.4707709,17.3033673 C32.4079345,17.1325309 32.4118618,16.9479491 32.4805891,16.78104 C32.8595709,15.8600945 33.0520073,14.8959491 33.0520073,13.9121673 C33.0520073,11.2710764 31.6833527,8.84598545 29.3937527,7.42627636 C29.2425527,7.33398545 29.1306255,7.18474909 29.0815345,7.01587636 C28.1291709,3.73267636 25.03448,1.43914909 21.5549164,1.43914909 C20.2019709,1.43914909 18.8627709,1.78671273 17.6806618,2.44845818 C17.4469891,2.58198545 17.1583345,2.56824 16.9364436,2.42293091 C15.9506982,1.77885818 14.8019709,1.43914909 13.6159345,1.43914909 C11.3066982,1.43914909 9.17811636,2.76460364 8.19040727,4.81856727 C8.09418909,5.01885818 7.90764364,5.16613091 7.69164364,5.21129455 C4.10800727,5.96336727 1.50815273,9.11893091 1.50815273,12.7123855 C1.50815273,14.6171127 2.23273455,16.4452582 3.54640727,17.8649673 C3.75651636,18.0927491 3.79775273,18.4285309 3.65048,18.6975491 C3.04764364,19.80504 2.72953455,21.0519491 2.72953455,22.31064 C2.72953455,26.5422764 6.24248,29.9864945 10.5605164,29.9864945 C12.6596436,29.9864945 14.6330982,29.1814036 16.1156436,27.7184945 C16.2550618,27.5830036 16.43768,27.5123127 16.6202982,27.5123127 M23.3869891,31.42584 C20.95208,31.42584 18.5858982,30.6305673 16.65368,29.17944 C14.9649527,30.6305673 12.8245891,31.42584 10.5605164,31.42584 C5.44917091,31.42584 1.29018909,27.3355855 1.29018909,22.31064 C1.29018909,20.9812582 1.58866182,19.6616945 2.15615273,18.4619127 C0.807134545,16.8360218 0.0688072727,14.8134764 0.0688072727,12.7123855 C0.0688072727,8.55733091 2.98677091,4.89514909 7.05346182,3.87994909 C8.34160727,1.51180364 10.8786255,-0.000196363636 13.6159345,-0.000196363636 C14.9374618,-0.000196363636 16.22168,0.341476364 17.3566618,0.993403636 C18.6565891,0.34344 20.0978982,-0.000196363636 21.5549164,-0.000196363636 C25.5784073,-0.000196363636 29.1679345,2.59769455 30.3834255,6.35216727 C32.9597164,8.05267636 34.4893891,10.8587127 34.4893891,13.9121673 C34.4893891,14.9921673 34.2949891,16.0525309 33.9140436,17.0677309 C34.2949891,18.1928945 34.4893891,19.3494764 34.4893891,20.5099855 C34.4893891,26.5285309 29.5096073,31.42584 23.3869891,31.42584" id="Fill-3" fill="#333333" mask="url(#mask-2)"></path>
                    </g>
                    <path d="M28.8805745,10.8742255 C27.6336655,13.3817891 25.0181018,15.1117527 21.9842836,15.1117527 C20.9042836,15.1117527 19.8753382,14.8702255 18.9406473,14.4735709 L18.9406473,23.1253527 C18.9406473,28.3977164 23.2076291,32.6745164 28.4721382,32.6745164 L31.6493018,32.6745164 C36.9138109,32.6745164 41.1807927,27.5828073 41.1807927,22.30848 L41.1807927,11.5222255 C39.6825382,12.9851345 37.6167927,13.9119709 35.3350473,13.9119709 C32.7253745,13.9119709 30.3984655,12.7259345 28.8805745,10.8742255" id="Fill-6" fill="#FFFFFF"></path>
                    <path d="M19.6607127,15.4938764 L19.6607127,23.1265309 C19.6607127,27.9943855 23.6154764,31.95504 28.4735127,31.95504 L31.6487127,31.95504 C36.3457309,31.95504 40.4615127,27.4465309 40.4615127,22.3096582 L40.4615127,13.0412945 C38.9593309,14.0761309 37.1842036,14.63184 35.3344582,14.63184 C32.9466764,14.63184 30.6943855,13.7128582 29.0154764,12.08304 C27.0577309,15.0481309 23.27184,16.5483491 19.6607127,15.4938764 M31.6487127,33.3943855 L28.4735127,33.3943855 C22.8202036,33.3943855 18.2233309,28.7876945 18.2233309,23.1265309 L18.2233309,14.4727855 C18.2233309,14.2312582 18.3431127,14.0074036 18.5453673,13.8738764 C18.7456582,13.7403491 19.0028945,13.7187491 19.2228218,13.81104 C22.77504,15.3210764 26.6532218,13.7383855 28.2359127,10.5533673 C28.3458764,10.3354036 28.5579491,10.1861673 28.7994764,10.16064 C29.0410036,10.1331491 29.2825309,10.2293673 29.4376582,10.4178764 C30.8828945,12.1812218 33.03504,13.1924945 35.3344582,13.1924945 C37.3373673,13.1924945 39.2362036,12.4168582 40.6794764,11.0069673 C40.8876218,10.8066764 41.1959127,10.7497309 41.4610036,10.8596945 C41.7280582,10.9716218 41.9008582,11.2327855 41.9008582,11.52144 L41.9008582,22.3096582 C41.9008582,28.2143127 37.1115491,33.3943855 31.6487127,33.3943855" id="Fill-8" fill="#333333"></path>
                    <path d="M33.6037091,17.51112 C32.7004364,17.51112 31.968,18.2317745 31.968,19.1193382 C31.968,20.0069018 32.7004364,20.7275564 33.6037091,20.7275564 C34.5069818,20.7275564 35.2413818,20.0069018 35.2413818,19.1193382 C35.2413818,18.2317745 34.5069818,17.51112 33.6037091,17.51112 M33.6037091,18.9504655 C33.7136727,18.9504655 33.8020364,19.0250836 33.8020364,19.1193382 C33.8020364,19.2116291 33.7136727,19.2882109 33.6037091,19.2882109 C33.4937455,19.2882109 33.4053818,19.2116291 33.4053818,19.1193382 C33.4053818,19.0250836 33.4937455,18.9504655 33.6037091,18.9504655" id="Fill-10" fill="#333333"></path>
                    <path d="M27.0549818,17.51112 C26.1517091,17.51112 25.4173091,18.2317745 25.4173091,19.1193382 C25.4173091,20.0069018 26.1517091,20.7275564 27.0549818,20.7275564 C27.9582545,20.7275564 28.6906909,20.0069018 28.6906909,19.1193382 C28.6906909,18.2317745 27.9582545,17.51112 27.0549818,17.51112 M27.0549818,18.9504655 C27.1649455,18.9504655 27.2533091,19.0250836 27.2533091,19.1193382 C27.2533091,19.2116291 27.1649455,19.2882109 27.0549818,19.2882109 C26.9450182,19.2882109 26.8566545,19.2116291 26.8566545,19.1193382 C26.8566545,19.0250836 26.9450182,18.9504655 27.0549818,18.9504655" id="Fill-12" fill="#333333"></path>
                    <path d="M30.3293455,27.15768 C32.1378545,27.15768 33.6027273,25.7183345 33.6027273,23.9412436 L27.0559636,23.9412436 C27.0559636,25.7183345 28.5208364,27.15768 30.3293455,27.15768" id="Fill-14" fill="#FFFFFF"></path>
                    <path d="M33.6037091,23.9418327 L27.0549818,23.9418327 C27.0549818,25.71696 28.5218182,27.1582691 30.3303273,27.1582691 C32.1368727,27.1582691 33.6037091,25.71696 33.6037091,23.9418327 M31.4044364,25.3811782 C31.1020364,25.5932509 30.7309091,25.7189236 30.3303273,25.7189236 C29.9277818,25.7189236 29.5566545,25.5932509 29.2542545,25.3811782 L31.4044364,25.3811782" id="Fill-16" fill="#333333"></path>
                    <path d="M13.9863927,59.3122255 L13.4483564,59.3122255 C6.41853818,59.3122255 0.720065455,53.6137527 0.720065455,46.5839345 L0.720065455,31.9626982 L26.7146836,31.9626982 L26.7146836,46.5839345 C26.7146836,53.6137527 21.0162109,59.3122255 13.9863927,59.3122255" id="Fill-18" fill="#FFFFFF"></path>
                    <path d="M1.43954182,32.6833527 L1.43954182,46.5839345 C1.43954182,53.2053164 6.82776,58.5935345 13.4491418,58.5935345 L13.9871782,58.5935345 C20.60856,58.5935345 25.9967782,53.2053164 25.9967782,46.5839345 L25.9967782,32.6833527 L1.43954182,32.6833527 Z M13.9871782,60.03288 L13.4491418,60.03288 C6.03445091,60.03288 0.000196363636,53.9986255 0.000196363636,46.5839345 L0.000196363636,31.9646618 C0.000196363636,31.5660436 0.322232727,31.2440073 0.718887273,31.2440073 L26.7154691,31.2440073 C27.1121236,31.2440073 27.43416,31.5660436 27.43416,31.9646618 L27.43416,46.5839345 C27.43416,53.9986255 21.4018691,60.03288 13.9871782,60.03288 L13.9871782,60.03288 Z" id="Fill-20" fill="#333333"></path>
                    <path d="M21.5159564,26.9860582 L21.0387927,26.9860582 C21.3294109,26.3557309 21.5159564,25.6861309 21.5159564,24.9811855 C21.5159564,21.6567491 18.0246109,18.9646036 13.7183564,18.9646036 C9.41013818,18.9646036 5.91879273,21.6567491 5.91879273,24.9811855 C5.91879273,25.6861309 6.10533818,26.3557309 6.39595636,26.9860582 L5.91879273,26.9860582 C3.04795636,26.9860582 0.719083636,28.7827855 0.719083636,30.9958036 L0.719083636,37.0123855 C0.719083636,38.12184 1.88352,39.0192218 3.31893818,39.0192218 C4.75435636,39.0192218 5.91879273,38.12184 5.91879273,37.0123855 C5.91879273,38.12184 7.08322909,39.0192218 8.51864727,39.0192218 C9.95406545,39.0192218 11.1185018,38.12184 11.1185018,37.0123855 C11.1185018,38.12184 12.2809745,39.0192218 13.7183564,39.0192218 C15.1537745,39.0192218 16.3182109,38.12184 16.3182109,37.0123855 C16.3182109,38.12184 17.4806836,39.0192218 18.9161018,39.0192218 C20.35152,39.0192218 21.5159564,38.12184 21.5159564,37.0123855 C21.5159564,38.12184 22.6803927,39.0192218 24.1158109,39.0192218 C25.5512291,39.0192218 26.7156655,38.12184 26.7156655,37.0123855 L26.7156655,30.9958036 C26.7156655,28.7827855 24.3867927,26.9860582 21.5159564,26.9860582" id="Fill-22" fill="#632ED8"></path>
                    <path d="M20.7968727,37.0131709 L22.2342545,37.0131709 C22.2342545,37.7102618 23.0962909,38.2993527 24.1154182,38.2993527 C25.1345455,38.2993527 25.9965818,37.7102618 25.9965818,37.0131709 L25.9965818,30.9965891 C25.9965818,29.1821891 23.9877818,27.7055345 21.5155636,27.7055345 L19.9171636,27.7055345 L20.3864727,26.6844436 C20.6613818,26.0835709 20.7968727,25.5258982 20.7968727,24.9800073 C20.7968727,22.06008 17.6197091,19.6821164 13.7179636,19.6821164 C9.81425455,19.6821164 6.63905455,22.06008 6.63905455,24.9800073 C6.63905455,25.5278618 6.77258182,26.0855345 7.04945455,26.6844436 L7.52072727,27.7055345 L5.9184,27.7055345 C3.45010909,27.7055345 1.43934545,29.1821891 1.43934545,30.9965891 L1.43934545,37.0131709 C1.43934545,37.7102618 2.30138182,38.2993527 3.32050909,38.2993527 C4.33963636,38.2993527 5.19970909,37.7102618 5.19970909,37.0131709 L6.63905455,37.0131709 C6.63905455,37.7102618 7.50109091,38.2993527 8.51825455,38.2993527 C9.53738182,38.2993527 10.3994182,37.7102618 10.3994182,37.0131709 L11.8387636,37.0131709 C11.8387636,37.7102618 12.6988364,38.2993527 13.7179636,38.2993527 C14.7370909,38.2993527 15.5991273,37.7102618 15.5991273,37.0131709 L17.0365091,37.0131709 C17.0365091,37.7102618 17.8985455,38.2993527 18.9157091,38.2993527 C19.9368,38.2993527 20.7968727,37.7102618 20.7968727,37.0131709 M24.1154182,39.7386982 C23.0629091,39.7386982 22.1242909,39.3341891 21.5155636,38.7058255 C20.9068364,39.3341891 19.9682182,39.7386982 18.9157091,39.7386982 C17.8651636,39.7386982 16.9245818,39.3341891 16.3178182,38.7058255 C15.7090909,39.3341891 14.7704727,39.7386982 13.7179636,39.7386982 C12.6654545,39.7386982 11.7268364,39.3341891 11.1181091,38.7058255 C10.5093818,39.3341891 9.57076364,39.7386982 8.51825455,39.7386982 C7.46574545,39.7386982 6.52712727,39.3341891 5.9184,38.7058255 C5.30967273,39.3341891 4.37105455,39.7386982 3.32050909,39.7386982 C1.48843636,39.7386982 0,38.5153527 0,37.0131709 L0,30.9965891 C0,28.5341891 2.36618182,26.5057527 5.37643636,26.2858255 C5.25665455,25.8459709 5.19970909,25.4139709 5.19970909,24.9800073 C5.19970909,21.2648073 9.02094545,18.2427709 13.7179636,18.2427709 C18.4149818,18.2427709 22.2342545,21.2648073 22.2342545,24.9800073 C22.2342545,25.4139709 22.1773091,25.8459709 22.0594909,26.2858255 C25.0697455,26.5057527 27.4339636,28.5341891 27.4339636,30.9965891 L27.4339636,37.0131709 C27.4339636,38.5153527 25.9474909,39.7386982 24.1154182,39.7386982" id="Fill-24" fill="#333333"></path>
                    <path d="M19.4584582,44.7239782 C19.4584582,45.7627418 18.6023127,46.6031782 17.5439127,46.6031782 C16.4874764,46.6031782 15.6313309,45.7627418 15.6313309,44.7239782 C15.6313309,43.6871782 16.4874764,42.8447782 17.5439127,42.8447782 C18.6023127,42.8447782 19.4584582,43.6871782 19.4584582,44.7239782" id="Fill-26" fill="#FFFFFF"></path>
                    <path d="M17.5454836,42.8447782 C16.4870836,42.8447782 15.6309382,43.6871782 15.6309382,44.7239782 C15.6309382,45.7627418 16.4870836,46.6031782 17.5454836,46.6031782 C18.60192,46.6031782 19.4580655,45.7627418 19.4580655,44.7239782 C19.4580655,43.6871782 18.60192,42.8447782 17.5454836,42.8447782 M17.5454836,44.2841236 C17.8066473,44.2841236 18.0206836,44.4804873 18.0206836,44.7239782 C18.0206836,44.9674691 17.8066473,45.1638327 17.5454836,45.1638327 C17.28432,45.1638327 17.0702836,44.9674691 17.0702836,44.7239782 C17.0702836,44.4804873 17.28432,44.2841236 17.5454836,44.2841236" id="Fill-28" fill="#333333"></path>
                    <path d="M11.8042036,44.7239782 C11.8042036,45.7627418 10.9460945,46.6031782 9.88965818,46.6031782 C8.83322182,46.6031782 7.97707636,45.7627418 7.97707636,44.7239782 C7.97707636,43.6871782 8.83322182,42.8447782 9.88965818,42.8447782 C10.9460945,42.8447782 11.8042036,43.6871782 11.8042036,44.7239782" id="Fill-30" fill="#FFFFFF"></path>
                    <path d="M9.89044364,42.8447782 C8.83204364,42.8447782 7.97589818,43.6871782 7.97589818,44.7239782 C7.97589818,45.7627418 8.83204364,46.6031782 9.89044364,46.6031782 C10.94688,46.6031782 11.8049891,45.7627418 11.8049891,44.7239782 C11.8049891,43.6871782 10.94688,42.8447782 9.89044364,42.8447782 M9.89044364,44.2841236 C10.1516073,44.2841236 10.3656436,44.4804873 10.3656436,44.7239782 C10.3656436,44.9674691 10.1516073,45.1638327 9.89044364,45.1638327 C9.62928,45.1638327 9.41524364,44.9674691 9.41524364,44.7239782 C9.41524364,44.4804873 9.62928,44.2841236 9.89044364,44.2841236" id="Fill-32" fill="#333333"></path>
                    <path d="M13.7179636,54.1203709 C15.8308364,54.1203709 17.5450909,52.4375345 17.5450909,50.3619709 L9.89083636,50.3619709 C9.89083636,52.4375345 11.6031273,54.1203709 13.7179636,54.1203709" id="Fill-34" fill="#FFFFFF"></path>
                    <path d="M17.5454836,50.3617745 L9.89122909,50.3617745 C9.89122909,52.4373382 11.60352,54.1201745 13.7183564,54.1201745 C15.8312291,54.1201745 17.5454836,52.4373382 17.5454836,50.3617745 M15.5897018,51.80112 C15.1518109,52.3371927 14.47632,52.6808291 13.7183564,52.6808291 C12.9603927,52.6808291 12.2829382,52.3371927 11.8450473,51.80112 L15.5897018,51.80112" id="Fill-36" fill="#333333"></path>
                    <path d="M58.6583345,33.2471127 L58.6583345,51.7210036 C58.6583345,57.4626764 54.0123709,62.1164945 48.28248,62.1164945 L44.8225527,62.1164945 C39.0926618,62.1164945 34.4466982,57.4626764 34.4466982,51.7210036 L34.4466982,33.2471127 L58.6583345,33.2471127 Z" id="Fill-38" fill="#FFFFFF"></path>
                    <path d="M35.1655855,33.9671782 L35.1655855,51.7223782 C35.1655855,57.0556145 39.4993309,61.3972145 44.8227491,61.3972145 L48.2826764,61.3972145 C53.6080582,61.3972145 57.93984,57.0556145 57.93984,51.7223782 L57.93984,33.9671782 L35.1655855,33.9671782 Z M48.2826764,62.83656 L44.8227491,62.83656 C38.7040582,62.83656 33.7282036,57.8508873 33.7282036,51.7223782 L33.7282036,33.2465236 C33.7282036,32.8498691 34.05024,32.5278327 34.4468945,32.5278327 L58.6585309,32.5278327 C59.0551855,32.5278327 59.3791855,32.8498691 59.3791855,33.2465236 L59.3791855,51.7223782 C59.3791855,57.8508873 54.3994036,62.83656 48.2826764,62.83656 L48.2826764,62.83656 Z" id="Fill-40" fill="#333333"></path>
                    <path d="M58.6583345,41.0019055 C57.1856073,42.0779782 55.3554982,42.7259782 53.3624073,42.7259782 C50.0988436,42.7259782 47.2849527,40.9901236 45.7788436,38.4472145 C44.5280073,40.9685236 41.8731709,42.7259782 38.7706255,42.7259782 C37.1702618,42.7259782 35.6837891,42.2605964 34.4466982,41.4653236 C32.3613164,40.12416 30.9867709,37.8443782 30.9867709,35.2543418 C30.9867709,31.1267782 34.4722255,27.7827055 38.7706255,27.7827055 C39.5364436,27.7827055 40.2629891,27.92016 40.9640073,28.1184873 C41.6610982,25.7739055 43.8858982,24.0459055 46.5525164,24.0459055 C48.4238618,24.0459055 50.0693891,24.9059782 51.1376073,26.2216145 C51.8523709,26.04096 52.5887345,25.9133236 53.3624073,25.9133236 C58.19688,25.9133236 62.1182618,29.6776145 62.1182618,34.3196509 C62.1182618,37.0491055 60.7574618,39.4663418 58.6583345,41.0019055" id="Fill-42" fill="#FFC800"></path>
                    <g id="Group-46" transform="translate(29.454545, 22.600196)">
                        <mask id="mask-4" fill="white">
                            <use xlink:href="#path-3"></use>
                        </mask>
                        <g id="Clip-45"></g>
                        <path d="M16.3241018,15.1283273 C16.5774109,15.1283273 16.8130473,15.2618545 16.9426473,15.4817818 C18.3761018,17.9029455 21.0446836,19.4051273 23.9076655,19.4051273 C25.6769018,19.4051273 27.3617018,18.8572727 28.7794473,17.8204727 C30.7902109,16.3497091 31.9428655,14.1249091 31.9428655,11.7194545 C31.9428655,7.47996364 28.3376291,4.03378182 23.9076655,4.03378182 C23.2793018,4.03378182 22.6293382,4.12410909 21.8615564,4.31850909 C21.5886109,4.38723636 21.30192,4.29298182 21.1251927,4.07501818 C20.1394473,2.86149091 18.6726109,2.1644 17.0977745,2.1644 C14.8356655,2.1644 12.8229382,3.62927273 12.1985018,5.72447273 C12.0865745,6.10149091 11.6958109,6.32534545 11.3109382,6.21145455 C10.5647564,5.99938182 9.93050182,5.9012 9.31588364,5.9012 C5.42002909,5.9012 2.25268364,8.92912727 2.25268364,12.6521818 C2.25268364,14.9044727 3.42104727,17.0016364 5.38075636,18.2603273 C6.54715636,19.0104364 7.90795636,19.4051273 9.31588364,19.4051273 C12.0551564,19.4051273 14.4939927,17.9186545 15.6800291,15.5289091 C15.7958836,15.2913091 16.0334836,15.1381455 16.2966109,15.1283273 L16.3241018,15.1283273 M23.9076655,20.8444727 C20.9406109,20.8444727 18.14832,19.4679636 16.3692655,17.1881818 C14.8062109,19.4699273 12.1985018,20.8444727 9.31588364,20.8444727 C7.62912,20.8444727 6.00126545,20.3692727 4.60315636,19.4699273 C2.22912,17.9461455 0.813338182,15.3973455 0.813338182,12.6521818 C0.813338182,8.13581818 4.62672,4.46185455 9.31588364,4.46185455 C9.87552,4.46185455 10.4390836,4.52665455 11.0537018,4.66214545 C12.0512291,2.31363636 14.4429382,0.727018182 17.0977745,0.727018182 C18.9514473,0.727018182 20.6931927,1.48301818 21.9401018,2.82025455 C22.6470109,2.66709091 23.2812655,2.59443636 23.9076655,2.59443636 C29.1309382,2.59443636 33.3822109,6.68665455 33.3822109,11.7194545 C33.3822109,14.5902909 32.0135564,17.2372727 29.6297018,18.9829455 C27.9645382,20.2004 25.9851927,20.8444727 23.9076655,20.8444727" id="Fill-44" fill="#333333" mask="url(#mask-4)"></path>
                    </g>
                    <path d="M50.1171055,44.9867127 C49.1333236,44.9867127 48.3341236,45.7702036 48.3341236,46.7363127 C48.3341236,47.7024218 49.1333236,48.4878764 50.1171055,48.4878764 C51.1008873,48.4878764 51.9000873,47.7024218 51.9000873,46.7363127 C51.9000873,45.7702036 51.1008873,44.9867127 50.1171055,44.9867127 M50.1171055,46.4260582 C50.3056145,46.4260582 50.4607418,46.5654764 50.4607418,46.7363127 C50.4607418,46.9091127 50.3056145,47.0485309 50.1171055,47.0485309 C49.9266327,47.0485309 49.7734691,46.9091127 49.7734691,46.7363127 C49.7734691,46.5654764 49.9266327,46.4260582 50.1171055,46.4260582" id="Fill-47" fill="#333333"></path>
                    <path d="M42.9875345,44.9867127 C42.0037527,44.9867127 41.2045527,45.7702036 41.2045527,46.7363127 C41.2045527,47.7024218 42.0037527,48.4878764 42.9875345,48.4878764 C43.9713164,48.4878764 44.7705164,47.7024218 44.7705164,46.7363127 C44.7705164,45.7702036 43.9713164,44.9867127 42.9875345,44.9867127 M42.9875345,46.4260582 C43.1760436,46.4260582 43.3311709,46.5654764 43.3311709,46.7363127 C43.3311709,46.9091127 43.1760436,47.0485309 42.9875345,47.0485309 C42.7970618,47.0485309 42.6438982,46.9091127 42.6438982,46.7363127 C42.6438982,46.5654764 42.7970618,46.4260582 42.9875345,46.4260582" id="Fill-49" fill="#333333"></path>
                    <path d="M46.55232,55.4874545 C48.5198836,55.4874545 50.11632,53.9204727 50.11632,51.9862909 L42.98832,51.9862909 C42.98832,53.9204727 44.5847564,55.4874545 46.55232,55.4874545" id="Fill-51" fill="#FFFFFF"></path>
                    <path d="M50.1171055,51.98688 L42.9871418,51.98688 C42.9871418,53.9210618 44.5835782,55.4880436 46.5531055,55.4880436 C48.5206691,55.4880436 50.1171055,53.9210618 50.1171055,51.98688 M48.07296,53.4262255 C47.6861236,53.8110982 47.1480873,54.0486982 46.5531055,54.0486982 C45.95616,54.0486982 45.4181236,53.8110982 45.0312873,53.4262255 L48.07296,53.4262255" id="Fill-53" fill="#333333"></path>
                </g>
            </g>
        </g>
    </g>
</svg>