<?xml version="1.0" encoding="UTF-8"?>
<svg width="108px" height="108px" viewBox="0 0 108 108" version="1.1" xmlns="http://www.w3.org/2000/svg" xmlns:xlink="http://www.w3.org/1999/xlink">
    <title>4</title>
    <defs>
        <polygon id="path-1" points="0.11109269 0.0276659807 13.7434909 0.0276659807 13.7434909 48.0909091 0.11109269 48.0909091"></polygon>
    </defs>
    <g id="2021" stroke="none" stroke-width="1" fill="none" fill-rule="evenodd">
        <g id="GUEST_PC_Main" transform="translate(-831.000000, -279.000000)">
            <g id="4" transform="translate(831.000000, 279.000000)">
                <rect id="Rectangle-2-Copy-8" fill="#F6F6F6" x="0" y="0" width="108" height="108" rx="31.4181818"></rect>
                <g id="icon_4_m" transform="translate(27.490909, 27.490909)">
                    <path d="M30.0518836,54.0192436 L8.71501091,54.0192436 C4.29682909,54.0192436 0.71712,50.4395345 0.71712,46.0213527 L0.71712,8.71422545 C0.71712,4.29604364 4.29682909,0.716334545 8.71501091,0.716334545 L30.0518836,0.716334545 C34.4681018,0.716334545 38.0478109,4.29604364 38.0478109,8.71422545 L38.0478109,46.0213527 C38.0478109,50.4395345 34.4681018,54.0192436 30.0518836,54.0192436" id="Fill-1" fill="#632ED8"></path>
                    <path d="M8.71265455,1.43345455 C4.69898182,1.43345455 1.43345455,4.70094545 1.43345455,8.71461818 L1.43345455,46.0217455 C1.43345455,50.0354182 4.69898182,53.3029091 8.71265455,53.3029091 L30.0514909,53.3029091 C34.0651636,53.3029091 37.3326545,50.0354182 37.3326545,46.0217455 L37.3326545,8.71461818 C37.3326545,4.70094545 34.0651636,1.43345455 30.0514909,1.43345455 L8.71265455,1.43345455 Z M30.0514909,54.7383273 L8.71265455,54.7383273 C3.90763636,54.7383273 0,50.8267636 0,46.0217455 L0,8.71461818 C0,3.9096 3.90763636,0 8.71265455,0 L30.0514909,0 C34.8565091,0 38.7661091,3.9096 38.7661091,8.71461818 L38.7661091,46.0217455 C38.7661091,50.8267636 34.8565091,54.7383273 30.0514909,54.7383273 L30.0514909,54.7383273 Z" id="Fill-3" fill="#333333"></path>
                    <path d="M27.2234618,14.0417673 L11.2178618,14.0417673 C9.01073455,14.0417673 7.21989818,12.2528945 7.21989818,10.0457673 L7.21989818,10.04184 C7.21989818,7.83471273 9.01073455,6.04584 11.2178618,6.04584 L27.2234618,6.04584 C29.4305891,6.04584 31.2194618,7.83471273 31.2194618,10.04184 L31.2194618,10.0457673 C31.2194618,12.2528945 29.4305891,14.0417673 27.2234618,14.0417673" id="Fill-5" fill="#FFFFFF"></path>
                    <path d="M11.2151127,6.76335273 C9.40856727,6.76335273 7.93780364,8.23411636 7.93780364,10.0426255 C7.93780364,11.8530982 9.40856727,13.3238618 11.2151127,13.3238618 L27.2226764,13.3238618 C29.0292218,13.3238618 30.5019491,11.8530982 30.5019491,10.0445891 C30.5019491,8.23608 29.0292218,6.76335273 27.2226764,6.76335273 L11.2151127,6.76335273 Z M27.2226764,14.75928 L11.2151127,14.75928 C8.61918545,14.75928 6.50434909,12.6444436 6.50434909,10.0445891 C6.50434909,7.44473455 8.61918545,5.32989818 11.2151127,5.32989818 L27.2226764,5.32989818 C29.8225309,5.32989818 31.9373673,7.44473455 31.9373673,10.0426255 C31.9373673,12.6444436 29.8225309,14.75928 27.2226764,14.75928 L27.2226764,14.75928 Z" id="Fill-7" fill="#333333"></path>
                    <path d="M54.2637164,15.3034036 L51.6972436,7.63344 L47.1180436,14.2980218 L42.6056073,46.5586036 L42.1029164,50.1559855 C41.82408,52.1274764 43.1986255,53.9497309 45.1701164,54.2285673 C47.1455345,54.50544 48.9697527,53.1308945 49.2466255,51.1594036 L49.75128,47.5620218 L54.2637164,15.3034036 Z" id="Fill-9" fill="#FFC800"></path>
                    <g id="Group-13" transform="translate(41.236364, 6.889927)">
                        <mask id="mask-2" fill="white">
                            <use xlink:href="#path-1"></use>
                        </mask>
                        <g id="Clip-12"></g>
                        <path d="M6.56875636,7.67534545 L1.57522909,43.3664 C1.46722909,44.1302545 1.66555636,44.8901818 2.12701091,45.5048 C2.59435636,46.1213818 3.26788364,46.52 4.03566545,46.628 C5.60853818,46.8400727 7.07930182,45.7463273 7.30119273,44.1695273 L12.2927564,8.48043636 L10.2368291,2.33425455 L6.56875636,7.67534545 Z M4.43821091,48.0909091 C4.23792,48.0909091 4.03762909,48.0771636 3.83341091,48.0496727 C2.68664727,47.8886545 1.67930182,47.2897455 0.982210909,46.3688 C0.289047273,45.4478545 -0.00942545455,44.3089455 0.15552,43.1661091 L5.17261091,7.30814545 C5.18635636,7.19818182 5.22562909,7.09410909 5.29042909,7.00181818 L9.86962909,0.337236364 C10.0247564,0.113381818 10.3114473,0.00145454545 10.5588655,0.0328727273 C10.8318109,0.0701818182 11.0556655,0.256727273 11.1401018,0.515927273 L13.7065745,8.18589091 C13.74192,8.28996364 13.7537018,8.40385455 13.7360291,8.51185455 L8.72090182,44.3698182 C8.41261091,46.5278545 6.55893818,48.0909091 4.43821091,48.0909091 L4.43821091,48.0909091 Z" id="Fill-11" fill="#333333" mask="url(#mask-2)"></path>
                    </g>
                    <polygon id="Fill-14" fill="#FFFFFF" points="52.5474982 27.6509455 45.3861164 26.6436 46.5034255 18.6830182 53.6648073 19.6903636"></polygon>
                    <path d="M46.1963127,26.0325164 L51.9360218,26.8395709 L52.8569673,20.3026255 L47.1133309,19.4936073 L46.1963127,26.0325164 Z M52.5467127,28.36728 C52.5133309,28.36728 52.4799491,28.3653164 52.4485309,28.3613891 L45.2851855,27.3540436 C44.8944218,27.2970982 44.6195127,26.9338255 44.6764582,26.5430618 L45.7918036,18.5844436 C45.8192945,18.3959345 45.91944,18.2250982 46.07064,18.1112073 C46.22184,17.9953527 46.4221309,17.9482255 46.6008218,17.9737527 L53.7641673,18.9810982 C54.1568945,19.03608 54.4318036,19.3993527 54.3748582,19.7901164 L53.2575491,27.7506982 C53.2300582,27.9392073 53.1299127,28.1100436 52.9787127,28.2239345 C52.8550036,28.3181891 52.70184,28.36728 52.5467127,28.36728 L52.5467127,28.36728 Z" id="Fill-16" fill="#333333"></path>
                </g>
            </g>
        </g>
    </g>
</svg>