<?xml version="1.0" encoding="UTF-8"?>
<svg width="108px" height="108px" viewBox="0 0 108 108" version="1.1" xmlns="http://www.w3.org/2000/svg" xmlns:xlink="http://www.w3.org/1999/xlink">
    <title>3</title>
    <defs>
        <polygon id="path-1" points="0 0.448085801 15.8111908 0.448085801 15.8111908 10.7818182 0 10.7818182"></polygon>
    </defs>
    <g id="2021" stroke="none" stroke-width="1" fill="none" fill-rule="evenodd">
        <g id="GUEST_PC_Main" transform="translate(-681.000000, -279.000000)">
            <g id="3" transform="translate(681.000000, 279.000000)">
                <rect id="Rectangle-2-Copy-3" fill="#F6F6F6" x="0" y="0" width="108" height="108" rx="31.4181818"></rect>
                <g id="icon_3_m" transform="translate(25.527273, 25.527273)">
                    <path d="M34.8830182,14.1776509 L16.7311636,35.9151055 C15.6334909,37.2307418 15.8082545,39.1884873 17.1199636,40.2900873 L21.87,44.2762691 C23.1817091,45.3759055 25.1335636,45.2031055 26.2312364,43.8874691 L44.3830909,22.1500145 L34.8830182,14.1776509 Z" id="Fill-1" fill="#632ED8"></path>
                    <path d="M34.9751127,15.2170036 L17.2984582,36.3869673 C16.4619491,37.3903855 16.5935127,38.8866764 17.5930036,39.7251491 L22.34304,43.7113309 C22.8260945,44.1138764 23.4269673,44.3043491 24.0651491,44.2532945 C24.6935127,44.1983127 25.2629673,43.89984 25.6655127,43.4148218 L43.3460945,22.2428945 L34.9751127,15.2170036 Z M23.8511127,45.73584 C22.9537309,45.73584 22.0916945,45.4236218 21.3946036,44.8384582 L16.6445673,40.85424 C15.0245673,39.4954036 14.8105309,37.0683491 16.16544,35.4424582 L34.7905309,13.1394764 L45.4196945,22.0563491 L26.7985309,44.3593309 C26.1387491,45.1487127 25.21584,45.6317673 24.1947491,45.7220945 C24.0808582,45.7319127 23.9650036,45.73584 23.8511127,45.73584 L23.8511127,45.73584 Z" id="Fill-3" fill="#333333"></path>
                    <polygon id="Fill-5" fill="#FFFFFF" points="15.7116436 49.2317018 13.3376073 47.2386109 17.1195709 40.2893018 21.8696073 44.2754836"></polygon>
                    <path d="M14.2724945,47.0609018 L15.7216582,48.2783564 L20.7073309,44.2646836 L17.3357673,41.43312 L14.2724945,47.0609018 Z M15.7020218,50.1850473 L12.4011491,47.41632 L16.9018036,39.1454836 L23.0303127,44.2862836 L15.7020218,50.1850473 Z" id="Fill-7" fill="#333333"></path>
                    <polygon id="Fill-9" fill="#FFC800" points="32.6097164 28.9930909 30.23568 27 34.21008 22.2381818 36.58608 24.2312727"></polygon>
                    <path d="M31.2713018,26.9086909 L32.5182109,27.9553091 L35.5481018,24.3245455 L34.3011927,23.2779273 L31.2713018,26.9086909 Z M32.7027927,30.0328364 L29.1996655,27.0932727 L34.1185745,21.2004 L37.6236655,24.1399636 L32.7027927,30.0328364 Z" id="Fill-11" fill="#333333"></path>
                    <g id="Group-15" transform="translate(0.000000, 48.127076)">
                        <mask id="mask-2" fill="white">
                            <use xlink:href="#path-1"></use>
                        </mask>
                        <g id="Clip-14"></g>
                        <path d="M6.97601455,10.7818182 C6.14343273,10.7818182 5.23819636,10.5285091 4.39186909,10.2909091 C2.84059636,9.85890909 1.78612364,9.62327273 1.30306909,10.2005818 C1.04386909,10.5147636 0.576523636,10.5540364 0.264305455,10.2948364 C-0.0479127273,10.0336727 -0.0891490909,9.56829091 0.170050909,9.25803636 C1.30306909,7.89723636 3.15477818,8.41563636 4.78852364,8.87316364 C6.34372364,9.30909091 7.39623273,9.54669091 7.87732364,8.96349091 C8.36626909,8.38029091 7.94212364,7.38669091 7.23914182,5.93752727 C6.50081455,4.40981818 5.66234182,2.68181818 6.79732364,1.32298182 C7.93034182,-0.0358545455 9.78008727,0.480581818 11.4138327,0.934181818 C12.9690327,1.36814545 14.0215418,1.60770909 14.5085236,1.02450909 C14.7696873,0.710327273 15.2370327,0.671054545 15.5453236,0.930254545 C15.8595055,1.19141818 15.9007418,1.6568 15.6395782,1.96705455 C14.50656,3.32589091 12.6528873,2.80945455 11.0211055,2.35389091 C9.46983273,1.92189091 8.41339636,1.68429091 7.92837818,2.26749091 C7.43943273,2.85069091 7.86357818,3.84625455 8.56656,5.29541818 C9.30488727,6.82116364 10.14336,8.55112727 9.01034182,9.908 C8.46445091,10.5638545 7.75165091,10.7818182 6.97601455,10.7818182" id="Fill-13" fill="#333333" mask="url(#mask-2)"></path>
                    </g>
                    <path d="M50.4022255,2.01999273 C46.6713164,-0.02808 41.9114618,0.417665455 38.6204073,3.11570182 C35.1428073,5.96690182 34.0215709,10.2849382 35.0622982,14.1002836 C35.6121164,16.1169382 36.7647709,17.9941745 38.4986618,19.4374473 C40.23648,20.8787564 42.3022255,21.6740291 44.3974255,21.8566473 C47.7473891,22.1472655 51.1837527,20.8689382 53.5067345,18.11592 C57.7305164,13.1066836 56.4855709,5.35621091 50.4022255,2.01999273" id="Fill-16" fill="#FFC800"></path>
                    <path d="M45.3437018,1.47056727 C43.1031927,1.47056727 40.8725018,2.22264 39.08952,3.68358545 C36.0144655,6.20685818 34.7439927,10.1243127 35.7749018,13.9062764 C36.3070473,15.8581309 37.4125745,17.5743491 38.9717018,18.8703491 C40.5308291,20.1663491 42.4296655,20.9439491 44.4639927,21.1206764 C47.6902473,21.3955855 50.8693745,20.1015491 52.9429745,17.6411127 C54.8457382,15.3848945 55.6272655,12.4315855 55.0892291,9.53718545 C54.5472655,6.63100364 52.7093018,4.12736727 50.0485745,2.66642182 C48.5876291,1.86329455 46.9637018,1.47056727 45.3437018,1.47056727 M45.3358473,22.6326764 C45.0020291,22.6326764 44.6701745,22.6189309 44.3343927,22.5894764 C42.0015927,22.3872218 39.8219564,21.4918036 38.0291564,20.0033673 C36.2363564,18.5149309 34.9658836,16.5395127 34.3532291,14.2950764 C33.1671927,9.94365818 34.6242109,5.44104 38.1548291,2.54467636 C41.6893745,-0.351687273 46.7555564,-0.82296 50.7574473,1.37434909 C53.8069745,3.04736727 55.9139564,5.92409455 56.5364291,9.26816727 C57.1589018,12.5984945 56.2595564,15.9955855 54.0720655,18.5915127 C51.9022473,21.1638764 48.6936655,22.6326764 45.3358473,22.6326764" id="Fill-18" fill="#333333"></path>
                </g>
            </g>
        </g>
    </g>
</svg>