<?xml version="1.0" encoding="UTF-8"?>
<svg width="108px" height="108px" viewBox="0 0 108 108" version="1.1" xmlns="http://www.w3.org/2000/svg" xmlns:xlink="http://www.w3.org/1999/xlink">
    <title>2</title>
    <defs>
        <polygon id="path-1" points="0.347367273 0 31.59864 0 31.59864 24.9238473 0.347367273 24.9238473"></polygon>
    </defs>
    <g id="2021" stroke="none" stroke-width="1" fill="none" fill-rule="evenodd">
        <g id="GUEST_PC_Main" transform="translate(-531.000000, -279.000000)">
            <g id="2" transform="translate(531.000000, 279.000000)">
                <rect id="Rectangle-2-Copy-2" fill="#F6F6F6" x="0" y="0" width="108" height="108" rx="31.4181818"></rect>
                <g id="icon_2_m" transform="translate(23.563636, 23.563636)">
                    <path d="M24.3404509,24.07104 C23.6806691,21.8501673 21.9821236,20.2674764 19.9752873,19.7058764 C18.4848873,17.3259491 15.6140509,16.1536582 12.8787055,17.0372945 C11.8026327,17.3848582 10.8836509,18.0092945 10.16496,18.8084945 C9.26757818,18.5335855 8.28379636,18.51984 7.32161455,18.8300945 C5.44241455,19.4368582 4.16801455,21.1098764 3.90881455,23.01264 C1.38946909,24.4853673 0.105250909,27.63504 0.994778182,30.6276218 C1.47586909,32.2417309 2.50677818,33.5161309 3.80277818,34.3114036 C3.61230545,35.3305309 3.65354182,36.4124945 3.96968727,37.4748218 C4.99274182,40.9151127 8.50176,42.84144 11.80656,41.7751855 C13.4638691,41.2391127 14.7539782,40.05504 15.5021236,38.5705309 C17.1123055,39.3010036 18.9718691,39.4620218 20.7823418,38.8788218 C24.7940509,37.5828218 27.0404509,33.1469673 25.7974691,28.9663855 C25.5284509,28.0650764 25.1141236,27.2560582 24.5976873,26.5432582 C24.6624873,25.7322764 24.5859055,24.8957673 24.3404509,24.07104" id="Fill-1" fill="#FFC800"></path>
                    <path d="M8.77627636,19.3200218 C8.36194909,19.3200218 7.94565818,19.3848218 7.54311273,19.5144218 C5.99773091,20.0151491 4.85096727,21.42504 4.62318545,23.1078764 C4.59373091,23.3278036 4.46413091,23.5222036 4.27365818,23.6321673 C1.99780364,24.9635127 0.909949091,27.81864 1.68558545,30.4224218 C2.09598545,31.7989309 2.98158545,32.9633673 4.17940364,33.6977673 C4.43271273,33.8528945 4.56231273,34.1494036 4.50929455,34.4419855 C4.33649455,35.37864 4.38754909,36.3545673 4.65853091,37.2696218 C5.11016727,38.7855491 6.10769455,40.0147855 7.46456727,40.7275855 C8.74878545,41.4070036 10.2116945,41.53464 11.58624,41.0888945 C13.0039855,40.6333309 14.1664582,39.6220582 14.8576582,38.2475127 C15.0324218,37.9019127 15.4447855,37.7585673 15.79824,37.9156582 C17.3082764,38.59704 18.9970036,38.6991491 20.5620218,38.1925309 C24.1986764,37.02024 26.2388945,32.9731855 25.10784,29.1715855 C24.8722036,28.3861309 24.5050036,27.6419127 24.0140945,26.9644582 C23.9139491,26.82504 23.8668218,26.6561673 23.8786036,26.4853309 C23.94144,25.7332582 23.8628945,24.98904 23.6508218,24.27624 C23.0833309,22.3656218 21.6361309,20.9164582 19.7824582,20.3980582 C19.6096582,20.3509309 19.4604218,20.2390036 19.3661673,20.0878036 C18.0210764,17.9376218 15.4447855,16.9656218 13.1002036,17.7216218 C12.1871127,18.0161673 11.3584582,18.5581309 10.70064,19.2886036 C10.5160582,19.4987127 10.22544,19.5811855 9.95445818,19.4967491 C9.56958545,19.3789309 9.17293091,19.3200218 8.77627636,19.3200218 M9.94660364,42.7894036 C8.86071273,42.7894036 7.78464,42.5243127 6.79300364,42.0019855 C5.09053091,41.1065673 3.84362182,39.5710036 3.28005818,37.6800218 C2.98944,36.7040945 2.90107636,35.6672945 3.02085818,34.6579855 C1.72682182,33.7331127 0.770530909,32.3939127 0.307112727,30.8328218 C-0.621687273,27.7145673 0.61344,24.2998036 3.25256727,22.5718036 C3.65904,20.49624 5.13765818,18.7800218 7.10129455,18.1438036 C8.02616727,17.8472945 9.00209455,17.8001673 9.93874909,18.0063491 C10.7104582,17.2464218 11.6412218,16.6789309 12.6583855,16.3510036 C15.5410036,15.4222036 18.7004945,16.5454036 20.4343855,19.09224 C22.6415127,19.80504 24.3479127,21.5703491 25.0292945,23.86584 C25.2668945,24.66504 25.3690036,25.4956582 25.3316945,26.3360945 C25.84224,27.0862036 26.23104,27.9011127 26.4882764,28.7611855 C27.8392582,33.3070036 25.3807855,38.1512945 21.00384,39.5631491 C19.3092218,40.10904 17.4928582,40.0736945 15.8178764,39.4747855 C14.9322764,40.9003855 13.6087855,41.9489673 12.0280582,42.4595127 C11.3466764,42.67944 10.6436945,42.7894036 9.94660364,42.7894036" id="Fill-3" fill="#333333"></path>
                    <path d="M11.3026909,25.8065018 C10.9826182,27.9488291 9.53738182,29.8241018 7.41469091,30.5094109 C6.65672727,30.7529018 5.88305455,30.8039564 5.14276364,30.7214836 L7.05338182,37.1425745 C8.21781818,41.0561018 12.1490182,43.2651927 15.8328,42.0771927 L18.0536727,41.3585018 C21.7374545,40.1705018 23.6009455,35.42832 22.4365091,31.5147927 L20.0546182,23.5090473 C19.3280727,24.9346473 18.0870545,26.0892655 16.4906182,26.6037382 C14.6644364,27.1928291 12.7754182,26.8374109 11.3026909,25.8065018" id="Fill-5" fill="#FFFFFF"></path>
                    <path d="M6.11653091,31.4700218 L7.74242182,36.9367855 C8.27260364,38.71584 9.42918545,40.1512582 11.0020582,40.9779491 C12.4453309,41.7378764 14.08104,41.8851491 15.6107127,41.3922764 L17.8335491,40.6735855 C20.9734036,39.6603491 22.8388582,35.3933673 21.7451127,31.7194036 L19.8030764,25.1903127 C18.98424,26.1721309 17.9238764,26.8967127 16.7123127,27.28944 C15.0667855,27.8215855 13.3171855,27.6821673 11.7855491,26.9261673 C11.1630764,28.9565673 9.63929455,30.5451491 7.63442182,31.1931491 C7.14744,31.35024 6.63885818,31.4425309 6.11653091,31.4700218 M13.7963127,43.1183127 C12.6083127,43.1183127 11.42424,42.8276945 10.3304945,42.2523491 C8.41202182,41.24304 7.00409455,39.4993309 6.36394909,37.3471855 L4.45333091,30.9260945 C4.38460364,30.6943855 4.43565818,30.4450036 4.59078545,30.2584582 C4.74591273,30.07584 4.97762182,29.9776582 5.22307636,30.0071127 C5.91624,30.0836945 6.57798545,30.0228218 7.19260364,29.8244945 C8.99718545,29.2412945 10.2990764,27.6625309 10.5916582,25.7008582 C10.6289673,25.45344 10.7899855,25.2433309 11.0197309,25.1431855 C11.2475127,25.0469673 11.5126036,25.0724945 11.7168218,25.21584 C13.0678036,26.1623127 14.7270764,26.4175855 16.2704945,25.9188218 C17.6195127,25.4828945 18.7368218,24.5108945 19.4123127,23.1815127 C19.54584,22.9203491 19.8089673,22.7671855 20.1192218,22.7927127 C20.4118036,22.81824 20.6592218,23.0204945 20.7436582,23.3032582 L23.1255491,31.3090036 C24.4510036,35.7664582 22.1849673,40.7815855 18.2753673,42.0442036 L16.0525309,42.7609309 C15.3142036,43.0004945 14.5542764,43.1183127 13.7963127,43.1183127" id="Fill-7" fill="#333333"></path>
                    <path d="M16.4293527,29.6090836 C16.3115345,29.6090836 16.1917527,29.6267564 16.0739345,29.6660291 C15.4416436,29.8702473 15.0862255,30.5693018 15.2845527,31.2290836 C15.4436073,31.7651564 15.9168436,32.1068291 16.4293527,32.1068291 C16.5471709,32.1068291 16.6669527,32.0891564 16.7847709,32.0518473 C17.4170618,31.8476291 17.7705164,31.1485745 17.5741527,30.4887927 C17.4150982,29.95272 16.9418618,29.6090836 16.4293527,29.6090836" id="Fill-9" fill="#333333"></path>
                    <path d="M11.8462255,31.0875055 C11.7284073,31.0875055 11.6086255,31.1051782 11.4908073,31.1444509 C10.8585164,31.3486691 10.5030982,32.0477236 10.7014255,32.7075055 C10.86048,33.2435782 11.3337164,33.5852509 11.8462255,33.5852509 C11.9640436,33.5852509 12.0838255,33.5695418 12.2016436,33.5302691 C12.8339345,33.3260509 13.1873891,32.6269964 12.9910255,31.9672145 C12.8319709,31.4311418 12.3587345,31.0875055 11.8462255,31.0875055" id="Fill-11" fill="#333333"></path>
                    <path d="M15.9125236,37.5633818 C17.1790691,37.1549455 17.8859782,35.7568364 17.4932509,34.4372727 L12.9120873,35.9178545 C13.3028509,37.2354545 14.6459782,37.9718182 15.9125236,37.5633818" id="Fill-13" fill="#FFFFFF"></path>
                    <path d="M17.4936436,34.4376655 L12.91248,35.9162836 C13.2305891,36.9884291 14.1790255,37.6757018 15.20208,37.6757018 C15.4377164,37.6757018 15.6753164,37.6403564 15.9129164,37.5637745 C17.1774982,37.1553382 17.8863709,35.7552655 17.4936436,34.4376655" id="Fill-15" fill="#333333"></path>
                    <path d="M60.0138327,30.8479418 L54.5568873,40.9567418 C52.8603055,44.09856 49.0901236,45.2413964 46.1328873,43.5094691 L44.3479418,42.4648145 C41.3926691,40.7328873 40.3696145,36.7840145 42.0642327,33.6421964 L47.5231418,23.53536 L60.0138327,30.8479418 Z" id="Fill-17" fill="#FFFFFF"></path>
                    <path d="M47.8015855,24.5321018 L42.6980945,33.9830836 C41.1880582,36.7832291 42.0913309,40.30992 44.7108218,41.84352 L46.4957673,42.8881745 C47.7151855,43.6029382 49.1368582,43.7855564 50.4996218,43.4026473 C51.95664,42.9942109 53.1721309,42.0045382 53.92224,40.6142836 L59.0512582,31.1181382 L47.8015855,24.5321018 Z M49.0897309,45.0383564 C47.9331491,45.0383564 46.79424,44.7320291 45.7692218,44.1291927 L43.9842764,43.0865018 C40.7010764,41.1641018 39.5562764,36.7734109 41.4315491,33.2997382 L46.8884945,23.1929018 C46.9827491,23.0201018 47.13984,22.8944291 47.3283491,22.8414109 C47.5168582,22.7903564 47.7191127,22.8157363 47.8860218,22.9140655 L60.3767127,30.2266473 C60.7105309,30.4230109 60.8303127,30.84912 60.6476945,31.1907927 L55.1907491,41.2976291 C54.2521309,43.0354473 52.7224582,44.2745018 50.8864582,44.7889745 C50.29344,44.9558836 49.68864,45.0383564 49.0897309,45.0383564 L49.0897309,45.0383564 Z" id="Fill-19" fill="#333333"></path>
                    <path d="M57.7222691,35.0915564 C56.6461964,35.2349018 55.5092509,35.0365745 54.4822691,34.4357018 C52.7974691,33.4479927 51.8588509,31.6493018 51.83136,29.8034836 C50.4430691,30.8049382 48.5540509,30.9639927 46.9536873,30.0253745 C46.1269964,29.54232 45.4986327,28.8393382 45.0941236,28.03032 C44.4147055,26.6675564 44.3813236,25.0043564 45.1451782,23.5885745 C46.3645964,21.3303927 49.1509964,20.5527927 51.3679418,21.8507564 C51.7626327,22.0824655 52.0964509,22.3770109 52.3988509,22.6970836 C53.45136,21.6249382 55.1106327,21.3500291 56.4871418,22.1570836 C57.4512873,22.7226109 58.0462691,23.6906836 58.2092509,24.7333745 C58.6314327,24.8492291 59.0477236,25.0023927 59.4463418,25.2360655 C61.9421236,26.6970109 62.8532509,29.9389745 61.4806691,32.47992 C60.6755782,33.9722836 59.2597964,34.8853745 57.7222691,35.0915564" id="Fill-21" fill="#FFC800"></path>
                    <path d="M51.8323418,29.0836145 C51.9423055,29.0836145 52.0542327,29.1091418 52.1563418,29.1601964 C52.3959055,29.2799782 52.5490691,29.5254327 52.5529964,29.7924873 C52.5745964,31.4576509 53.4543055,32.9991055 54.84456,33.8120509 C55.6987418,34.3127782 56.6609236,34.5091418 57.6250691,34.3775782 L57.6270327,34.3775782 C59.0055055,34.1929964 60.1777964,33.3761236 60.8473964,32.1370691 C62.0353964,29.93976 61.2420873,27.1219418 59.0840509,25.85736 C58.7855782,25.6806327 58.4458691,25.5451418 58.0158327,25.42536 C57.7448509,25.3487782 57.5425964,25.1209964 57.4974327,24.8441236 C57.3599782,23.9624509 56.8592509,23.2103782 56.1228873,22.7764145 C55.06056,22.1578691 53.7704509,22.3247782 52.9123418,23.2025236 C52.7768509,23.3419418 52.5844145,23.4617236 52.3919782,23.4185236 C52.1975782,23.41656 52.0110327,23.3340873 51.8755418,23.1927055 C51.5731418,22.8706691 51.2962691,22.6428873 51.0036873,22.4720509 C50.1004145,21.9438327 49.0616509,21.8024509 48.0719782,22.0793236 C47.0881964,22.3542327 46.2732873,23.0120509 45.7784509,23.9290691 C45.1520509,25.0895782 45.1383055,26.5033964 45.7372145,27.7110327 C46.0945964,28.4218691 46.6404873,29.0089964 47.3179418,29.4056509 C48.6217964,30.1695055 50.1907418,30.0988145 51.4121236,29.2191055 C51.5358327,29.1287782 51.6850691,29.0836145 51.8323418,29.0836145 M57.0399055,35.8561964 C56.0188145,35.8561964 55.0212873,35.5852145 54.1180145,35.0550327 C52.6217236,34.1792509 51.5770691,32.6692145 51.2353964,30.9588873 C49.7489236,31.5833236 48.0248509,31.4871055 46.5894327,30.6466691 C45.6724145,30.1086327 44.9321236,29.3153236 44.4510327,28.3531418 C43.6420145,26.7272509 43.6636145,24.8166327 44.5119055,23.2457236 C45.1952509,21.9811418 46.3204145,21.0739418 47.6851418,20.6929964 C49.0537964,20.3100873 50.4872509,20.50056 51.7321964,21.2290691 C51.97176,21.3704509 52.1995418,21.5334327 52.4292873,21.7297964 C53.7115418,20.8127782 55.4415055,20.7106691 56.8494327,21.5353964 C57.8312509,22.1107418 58.5342327,23.0552509 58.8268145,24.1705964 C59.1920509,24.2943055 59.5140873,24.4396145 59.8105964,24.6163418 C62.6323418,26.26776 63.6652145,29.9476145 62.1139418,32.8223782 C61.2244145,34.4698691 59.6574327,35.5577236 57.8175055,35.8031782 C57.5583055,35.8385236 57.2971418,35.8561964 57.0399055,35.8561964" id="Fill-23" fill="#333333"></path>
                    <path d="M51.6234109,34.5497891 C51.2542473,34.5497891 50.8968655,34.7520436 50.7024655,35.1113891 C50.4177382,35.6396073 50.5983927,36.3092073 51.1050109,36.6057164 C51.2679927,36.7019345 51.4466836,36.7470982 51.6214473,36.7470982 C51.9906109,36.7470982 52.3479927,36.5468073 52.5423927,36.1874618 C52.82712,35.65728 52.6464655,34.9896436 52.1398473,34.6911709 C51.9768655,34.5949527 51.7981745,34.5497891 51.6234109,34.5497891" id="Fill-25" fill="#333333"></path>
                    <path d="M47.9453236,32.3962691 C47.57616,32.3962691 47.2187782,32.5985236 47.0243782,32.9578691 C46.7396509,33.4860873 46.9203055,34.1556873 47.4269236,34.4521964 C47.5899055,34.5484145 47.7685964,34.5935782 47.94336,34.5935782 C48.3125236,34.5935782 48.6699055,34.3932873 48.8643055,34.0339418 C49.1490327,33.50376 48.9683782,32.83416 48.46176,32.5376509 C48.2968145,32.4414327 48.1200873,32.3962691 47.9453236,32.3962691" id="Fill-27" fill="#333333"></path>
                    <path d="M47.1985527,39.3601091 C48.2137527,39.9550909 49.4999345,39.5800364 50.0713527,38.5216364 L46.3934618,36.3675273 C45.8220436,37.4259273 46.1813891,38.7651273 47.1985527,39.3601091" id="Fill-29" fill="#FFFFFF"></path>
                    <path d="M46.3930691,36.3677236 C45.8216509,37.4261236 46.18296,38.7653236 47.19816,39.3603055 C47.5260873,39.5527418 47.8795418,39.6411055 48.2310327,39.6411055 C48.96936,39.6411055 49.6841236,39.23856 50.07096,38.5218327 L46.3930691,36.3677236 Z" id="Fill-31" fill="#333333"></path>
                    <path d="M31.6830764,47.96928 L31.6811127,47.96928 C23.4495491,47.96928 16.7751491,41.2968436 16.7751491,33.0633164 L16.7751491,15.9423709 L46.58904,15.9423709 L46.58904,33.0633164 C46.58904,41.2968436 39.91464,47.96928 31.6830764,47.96928" id="Fill-33" fill="#FFFFFF"></path>
                    <path d="M17.4946255,16.6632218 L17.4946255,33.0654764 C17.4946255,40.88664 23.8587709,47.2488218 31.6818982,47.2488218 C39.5050255,47.2488218 45.8691709,40.88664 45.8691709,33.0654764 L45.8691709,16.6632218 L17.4946255,16.6632218 Z M31.6818982,48.6881673 C23.0654618,48.6881673 16.05528,41.6799491 16.05528,33.0654764 L16.05528,15.9425673 C16.05528,15.5459127 16.3773164,15.2238764 16.7759345,15.2238764 L46.5878618,15.2238764 C46.98648,15.2238764 47.3085164,15.5459127 47.3085164,15.9425673 L47.3085164,33.0654764 C47.3085164,41.6799491 40.2983345,48.6881673 31.6818982,48.6881673 L31.6818982,48.6881673 Z" id="Fill-35" fill="#333333"></path>
                    <path d="M40.6258691,10.1137091 L40.0780145,10.1137091 C40.4118327,9.37734545 40.6258691,8.59385455 40.6258691,7.7652 C40.6258691,3.87327273 36.6200509,0.719672727 31.6815055,0.719672727 C26.74296,0.719672727 22.7371418,3.87327273 22.7371418,7.7652 C22.7371418,8.59385455 22.9531418,9.37734545 23.2849964,10.1137091 L22.7371418,10.1137091 C19.4441236,10.1137091 16.7755418,12.2167636 16.7755418,14.8107273 L16.7755418,21.8562545 C16.7755418,23.1542182 18.1108145,24.2047636 19.7563418,24.2047636 C21.4018691,24.2047636 22.7371418,23.1542182 22.7371418,21.8562545 C22.7371418,23.1542182 24.0724145,24.2047636 25.7199055,24.2047636 C27.3654327,24.2047636 28.7007055,23.1542182 28.7007055,21.8562545 C28.7007055,23.1542182 30.0359782,24.2047636 31.6815055,24.2047636 C33.3289964,24.2047636 34.6623055,23.1542182 34.6623055,21.8562545 C34.6623055,23.1542182 35.9975782,24.2047636 37.6450691,24.2047636 C39.2905964,24.2047636 40.6258691,23.1542182 40.6258691,21.8562545 C40.6258691,23.1542182 41.9611418,24.2047636 43.6066691,24.2047636 C45.25416,24.2047636 46.5894327,23.1542182 46.5894327,21.8562545 L46.5894327,14.8107273 C46.5894327,12.2167636 43.9188873,10.1137091 40.6258691,10.1137091" id="Fill-37" fill="#632ED8"></path>
                    <g id="Group-41" transform="translate(15.709091, 0.000393)">
                        <mask id="mask-2" fill="white">
                            <use xlink:href="#path-1"></use>
                        </mask>
                        <g id="Clip-40"></g>
                        <path d="M24.1976945,21.8566473 L25.63704,21.8566473 C25.63704,22.7402836 26.6718764,23.4864655 27.8971855,23.4864655 C29.1244582,23.4864655 30.1592945,22.7402836 30.1592945,21.8566473 L30.1592945,14.81112 C30.1592945,12.6177382 27.8068582,10.8327927 24.9163855,10.8327927 L23.2571127,10.8327927 L23.7126764,9.81955636 C24.03864,9.09497455 24.1976945,8.42341091 24.1976945,7.76559273 C24.1976945,4.27621091 20.5080218,1.43875636 15.9739855,1.43875636 C11.4379855,1.43875636 7.74831273,4.27621091 7.74831273,7.76559273 C7.74831273,8.42537455 7.90736727,9.09497455 8.23333091,9.81955636 L8.69085818,10.8327927 L7.02962182,10.8327927 C4.13718545,10.8327927 1.78474909,12.6177382 1.78474909,14.81112 L1.78474909,21.8566473 C1.78474909,22.7402836 2.82154909,23.4864655 4.04685818,23.4864655 C5.27413091,23.4864655 6.30896727,22.7402836 6.30896727,21.8566473 L7.74831273,21.8566473 C7.74831273,22.7402836 8.78314909,23.4864655 10.0084582,23.4864655 C11.2357309,23.4864655 12.2705673,22.7402836 12.2705673,21.8566473 L13.7118764,21.8566473 C13.7118764,22.7402836 14.7467127,23.4864655 15.9739855,23.4864655 C17.1992945,23.4864655 18.2341309,22.7402836 18.2341309,21.8566473 L19.6734764,21.8566473 C19.6734764,22.7402836 20.7102764,23.4864655 21.9355855,23.4864655 C23.1628582,23.4864655 24.1976945,22.7402836 24.1976945,21.8566473 M27.8971855,24.9238473 C26.6758036,24.9238473 25.5918764,24.4329382 24.9163855,23.6730109 C24.2428582,24.4329382 23.1569673,24.9238473 21.9355855,24.9238473 C20.7142036,24.9238473 19.6283127,24.4309745 18.9547855,23.6710473 C18.2792945,24.4309745 17.1953673,24.9238473 15.9739855,24.9238473 C14.75064,24.9238473 13.6667127,24.4309745 12.9912218,23.6710473 C12.3157309,24.4309745 11.2318036,24.9238473 10.0084582,24.9238473 C8.78707636,24.9238473 7.70314909,24.4329382 7.02962182,23.6730109 C6.35413091,24.4329382 5.27020364,24.9238473 4.04685818,24.9238473 C2.00664,24.9238473 0.347367273,23.5473382 0.347367273,21.8566473 L0.347367273,14.81112 C0.347367273,11.9559927 3.08860364,9.60748364 6.54853091,9.40915636 C6.38751273,8.85344727 6.30896727,8.30952 6.30896727,7.76559273 C6.30896727,3.48290182 10.6446764,-0.000589090909 15.9739855,-0.000589090909 C21.3013309,-0.000589090909 25.63704,3.48290182 25.63704,7.76559273 C25.63704,8.30952 25.5584945,8.85344727 25.3974764,9.40915636 C28.8593673,9.60748364 31.59864,11.9559927 31.59864,14.81112 L31.59864,21.8566473 C31.59864,23.5473382 29.9374036,24.9238473 27.8971855,24.9238473" id="Fill-39" fill="#333333" mask="url(#mask-2)"></path>
                    </g>
                    <path d="M38.2661673,30.8862327 C38.2661673,32.1017236 37.2843491,33.0874691 36.0708218,33.0874691 C34.8592582,33.0874691 33.87744,32.1017236 33.87744,30.8862327 C33.87744,29.6707418 34.8592582,28.6849964 36.0708218,28.6849964 C37.2843491,28.6849964 38.2661673,29.6707418 38.2661673,30.8862327" id="Fill-42" fill="#FFFFFF"></path>
                    <path d="M36.0716073,28.6857818 C34.8600436,28.6857818 33.8762618,29.6715273 33.8762618,30.8870182 C33.8762618,32.1025091 34.8600436,33.0862909 36.0716073,33.0862909 C37.2831709,33.0862909 38.2669527,32.1025091 38.2669527,30.8870182 C38.2669527,29.6715273 37.2831709,28.6857818 36.0716073,28.6857818 M36.0716073,30.1251273 C36.4878982,30.1251273 36.8276073,30.4668 36.8276073,30.8870182 C36.8276073,31.3052727 36.4878982,31.6469455 36.0716073,31.6469455 C35.6553164,31.6469455 35.3156073,31.3052727 35.3156073,30.8870182 C35.3156073,30.4668 35.6553164,30.1251273 36.0716073,30.1251273" id="Fill-44" fill="#333333"></path>
                    <path d="M29.4873382,30.8862327 C29.4873382,32.1017236 28.50552,33.0874691 27.2919927,33.0874691 C26.0804291,33.0874691 25.0966473,32.1017236 25.0966473,30.8862327 C25.0966473,29.6707418 26.0804291,28.6849964 27.2919927,28.6849964 C28.50552,28.6849964 29.4873382,29.6707418 29.4873382,30.8862327" id="Fill-46" fill="#FFFFFF"></path>
                    <path d="M27.2917964,28.6857818 C26.0802327,28.6857818 25.0964509,29.6715273 25.0964509,30.8870182 C25.0964509,32.1025091 26.0802327,33.0862909 27.2917964,33.0862909 C28.5053236,33.0862909 29.4871418,32.1025091 29.4871418,30.8870182 C29.4871418,29.6715273 28.5053236,28.6857818 27.2917964,28.6857818 M27.2917964,30.1251273 C27.7080873,30.1251273 28.0477964,30.4668 28.0477964,30.8870182 C28.0477964,31.3052727 27.7080873,31.6469455 27.2917964,31.6469455 C26.8755055,31.6469455 26.5357964,31.3052727 26.5357964,30.8870182 C26.5357964,30.4668 26.8755055,30.1251273 27.2917964,30.1251273" id="Fill-48" fill="#333333"></path>
                    <path d="M31.6820945,41.8884873 C34.1052218,41.8884873 36.0708218,39.91896 36.0708218,37.4879782 L27.2933673,37.4879782 C27.2933673,39.91896 29.2570036,41.8884873 31.6820945,41.8884873" id="Fill-50" fill="#FFFFFF"></path>
                    <path d="M36.0716073,37.4875855 L27.2921891,37.4875855 C27.2921891,39.9185673 29.2577891,41.8880945 31.68288,41.8880945 C34.1060073,41.8880945 36.0716073,39.9185673 36.0716073,37.4875855 M34.2611345,38.9269309 C33.7545164,39.8341309 32.7884073,40.4507127 31.68288,40.4507127 C30.5753891,40.4507127 29.6073164,39.8341309 29.1046255,38.9269309 L34.2611345,38.9269309" id="Fill-52" fill="#333333"></path>
                    <path d="M30.7788218,31.6983927 C30.4312582,33.3969382 28.3831855,34.4082109 26.2035491,33.9605018 C24.0239127,33.5108291 22.5394036,31.7710473 22.8850036,30.0744655 C23.2345309,28.37592 25.2826036,27.3626836 27.46224,27.8123564 C29.6418764,28.2620291 31.1263855,30.0018109 30.7788218,31.6983927" id="Fill-54" fill="#333333"></path>
                    <path d="M32.5843855,31.6983927 C32.9319491,33.3969382 34.9800218,34.4082109 37.1616218,33.9605018 C39.3392945,33.5108291 40.8257673,31.7710473 40.4782036,30.0744655 C40.1286764,28.37592 38.0806036,27.3626836 35.9009673,27.8123564 C33.7213309,28.2620291 32.2368218,30.0018109 32.5843855,31.6983927" id="Fill-56" fill="#333333"></path>
                    <path d="M33.8768509,31.6053164 L29.4881236,31.6053164 C29.0895055,31.6053164 28.7674691,31.28328 28.7674691,30.8866255 C28.7674691,30.4899709 29.0895055,30.1679345 29.4881236,30.1679345 L33.8768509,30.1679345 C34.2754691,30.1679345 34.5975055,30.4899709 34.5975055,30.8866255 C34.5975055,31.28328 34.2754691,31.6053164 33.8768509,31.6053164" id="Fill-58" fill="#333333"></path>
                    <polygon id="Fill-60" fill="#333333" points="24.0288218 31.5746836 16.8222764 29.3734473 17.2405309 27.9969382 24.44904 30.1981745"></polygon>
                    <polygon id="Fill-62" fill="#333333" points="39.1378255 31.7730109 38.7195709 30.3965018 45.9261164 28.1952655 46.3443709 29.5717745"></polygon>
                    <path d="M47.9366836,42.2470473 C46.94112,42.2470473 46.1360291,43.0560655 46.1360291,44.0535927 L46.1360291,41.0433382 C46.1360291,40.0438473 45.3270109,39.2367927 44.3334109,39.2367927 C43.3378473,39.2367927 42.5327564,40.0438473 42.5327564,41.0433382 L42.5327564,39.8376655 C42.5327564,38.8401382 41.7237382,38.0330836 40.7301382,38.0330836 C39.7345745,38.0330836 38.92752,38.8401382 38.92752,39.8376655 L38.92752,41.0433382 C38.92752,40.0438473 38.1204655,39.2367927 37.1268655,39.2367927 C36.1313018,39.2367927 35.3242473,40.0438473 35.3242473,41.0433382 L35.3242473,47.0638473 C35.3242473,46.06632 34.5191564,45.2573018 33.5235927,45.2573018 C32.5280291,45.2573018 31.7209745,46.06632 31.7209745,47.0638473 L31.7209745,48.2675564 L31.7209745,54.2900291 C31.7209745,55.3562836 31.9369745,56.3734473 32.3218473,57.3002836 C33.4980655,60.12792 36.2805382,62.1170836 39.5283927,62.1170836 L41.92992,62.1170836 C46.2420655,62.1170836 49.7373382,58.6119927 49.7373382,54.2900291 L49.7373382,48.2675564 L49.7373382,44.0535927 C49.7373382,43.0560655 48.9322473,42.2470473 47.9366836,42.2470473" id="Fill-64" fill="#FFFFFF"></path>
                    <path d="M33.5230036,45.9767782 C32.9260582,45.9767782 32.44104,46.46376 32.44104,47.0646327 L32.44104,54.2888509 C32.44104,55.23336 32.6236582,56.1523418 32.9869309,57.0222327 C34.0924582,59.6809964 36.6608945,61.3972145 39.5297673,61.3972145 L41.9312945,61.3972145 C45.8389309,61.3972145 49.0180582,58.2082691 49.0180582,54.2888509 L49.0180582,44.0543782 C49.0180582,43.4535055 48.53304,42.9665236 47.9360945,42.9665236 C47.3391491,42.9665236 46.8541309,43.4535055 46.8541309,44.0543782 C46.8541309,44.4510327 46.5320945,44.7730691 46.1334764,44.7730691 C45.7368218,44.7730691 45.4147855,44.4510327 45.4147855,44.0543782 L45.4147855,41.04216 C45.4147855,40.4432509 44.9297673,39.9562691 44.3328218,39.9562691 C43.73784,39.9562691 43.2528218,40.4432509 43.2528218,41.04216 C43.2528218,41.4388145 42.9288218,41.7628145 42.5321673,41.7628145 C42.1355127,41.7628145 41.8115127,41.4388145 41.8115127,41.04216 L41.8115127,39.8384509 C41.8115127,39.2395418 41.3264945,38.7505964 40.7295491,38.7505964 C40.1326036,38.7505964 39.6475855,39.2395418 39.6475855,39.8384509 L39.6475855,41.04216 C39.6475855,41.4388145 39.3255491,41.7628145 38.9288945,41.7628145 C38.5302764,41.7628145 38.20824,41.4388145 38.20824,41.04216 C38.20824,40.4432509 37.7232218,39.9562691 37.1262764,39.9562691 C36.5293309,39.9562691 36.0443127,40.4432509 36.0443127,41.04216 L36.0443127,47.0646327 C36.0443127,47.4612873 35.7222764,47.7833236 35.3236582,47.7833236 C34.9270036,47.7833236 34.6049673,47.4612873 34.6049673,47.0646327 C34.6049673,46.46376 34.1199491,45.9767782 33.5230036,45.9767782 M41.9312945,62.83656 L39.5297673,62.83656 C36.0776945,62.83656 32.9869309,60.7708145 31.6575491,57.5759782 C31.2216218,56.52936 31.0016945,55.4238327 31.0016945,54.2888509 L31.0016945,47.0646327 C31.0016945,45.6704509 32.1327491,44.5374327 33.5230036,44.5374327 C33.90984,44.5374327 34.27704,44.6257964 34.6049673,44.7828873 L34.6049673,41.04216 C34.6049673,39.6499418 35.7360218,38.5169236 37.1262764,38.5169236 C37.5916582,38.5169236 38.0275855,38.64456 38.40264,38.8644873 C38.7855491,37.95336 39.6829309,37.3112509 40.7295491,37.3112509 C41.7761673,37.3112509 42.6755127,37.95336 43.0564582,38.8644873 C43.4315127,38.64456 43.86744,38.5169236 44.3328218,38.5169236 C45.7230764,38.5169236 46.8541309,39.6499418 46.8541309,41.04216 L46.8541309,41.7706691 C47.1820582,41.6155418 47.5492582,41.5271782 47.9360945,41.5271782 C49.3263491,41.5271782 50.4574036,42.6601964 50.4574036,44.0543782 L50.4574036,54.2888509 C50.4574036,59.0015782 46.63224,62.83656 41.9312945,62.83656" id="Fill-66" fill="#333333"></path>
                    <line x1="35.32464" y1="47.06424" x2="35.32464" y2="52.4701309" id="Fill-68" fill="#FFFFFF"></line>
                    <path d="M35.32464,53.19 C34.9279855,53.19 34.6059491,52.8679636 34.6059491,52.4693455 L34.6059491,47.0634545 C34.6059491,46.6668 34.9279855,46.3447636 35.32464,46.3447636 C35.7212945,46.3447636 36.0452945,46.6668 36.0452945,47.0634545 L36.0452945,52.4693455 C36.0452945,52.8679636 35.7212945,53.19 35.32464,53.19" id="Fill-70" fill="#333333"></path>
                    <line x1="38.9277164" y1="41.0427491" x2="38.9277164" y2="50.0754764" id="Fill-72" fill="#FFFFFF"></line>
                    <path d="M38.9286982,50.7939709 C38.53008,50.7939709 38.2080436,50.4719345 38.2080436,50.07528 L38.2080436,41.0425527 C38.2080436,40.6458982 38.53008,40.3218982 38.9286982,40.3218982 C39.3253527,40.3218982 39.6473891,40.6458982 39.6473891,41.0425527 L39.6473891,50.07528 C39.6473891,50.4719345 39.3253527,50.7939709 38.9286982,50.7939709" id="Fill-74" fill="#333333"></path>
                    <line x1="42.5319709" y1="41.0427491" x2="42.5319709" y2="50.0754764" id="Fill-76" fill="#FFFFFF"></line>
                    <path d="M42.5319709,50.7939709 C42.1353164,50.7939709 41.8113164,50.4719345 41.8113164,50.07528 L41.8113164,41.0425527 C41.8113164,40.6458982 42.1353164,40.3218982 42.5319709,40.3218982 C42.9286255,40.3218982 43.2526255,40.6458982 43.2526255,41.0425527 L43.2526255,50.07528 C43.2526255,50.4719345 42.9286255,50.7939709 42.5319709,50.7939709" id="Fill-78" fill="#333333"></path>
                    <line x1="46.1352436" y1="41.0427491" x2="46.1352436" y2="50.0754764" id="Fill-80" fill="#FFFFFF"></line>
                    <path d="M46.1342618,50.7939709 C45.7376073,50.7939709 45.4155709,50.4719345 45.4155709,50.07528 L45.4155709,41.0425527 C45.4155709,40.6458982 45.7376073,40.3218982 46.1342618,40.3218982 C46.53288,40.3218982 46.8549164,40.6458982 46.8549164,41.0425527 L46.8549164,50.07528 C46.8549164,50.4719345 46.53288,50.7939709 46.1342618,50.7939709" id="Fill-82" fill="#333333"></path>
                    <path d="M15.0603055,40.8856582 C15.8536145,40.8856582 16.4957236,41.5316945 16.4957236,42.3250036 L16.4957236,39.92544 C16.4957236,39.1301673 17.1397964,38.4860945 17.9331055,38.4860945 C18.7264145,38.4860945 19.3685236,39.1301673 19.3685236,39.92544 L19.3685236,38.9652218 C19.3685236,38.1719127 20.0106327,37.5258764 20.8039418,37.5258764 C21.5972509,37.5258764 22.2413236,38.1719127 22.2413236,38.9652218 L22.2413236,39.92544 C22.2413236,39.1301673 22.8834327,38.4860945 23.6767418,38.4860945 C24.4700509,38.4860945 25.11216,39.1301673 25.11216,39.92544 L25.11216,44.7265309 C25.11216,43.9292945 25.7562327,43.2852218 26.5495418,43.2852218 C27.3408873,43.2852218 27.98496,43.9292945 27.98496,44.7265309 L27.98496,45.6847855 L27.98496,50.4839127 C27.98496,51.3341673 27.8141236,52.1451491 27.5058327,52.8834764 C26.5691782,55.1377309 24.3502691,56.7243491 21.7621964,56.7243491 L19.8476509,56.7243491 C16.4093236,56.7243491 13.6248873,53.9300945 13.6248873,50.4839127 L13.6248873,45.6847855 L13.6248873,42.3250036 C13.6248873,41.5316945 14.2669964,40.8856582 15.0603055,40.8856582" id="Fill-84" fill="#FFFFFF"></path>
                    <path d="M15.0603055,41.6057236 C14.6656145,41.6057236 14.3435782,41.9297236 14.3435782,42.3263782 L14.3435782,50.4833236 C14.3435782,53.5289236 16.8138327,56.0050691 19.8476509,56.0050691 L21.7621964,56.0050691 C23.98896,56.0050691 25.9840145,54.67176 26.8421236,52.6079782 C27.1229236,51.9344509 27.2643055,51.2196873 27.2643055,50.4833236 L27.2643055,44.7259418 C27.2643055,44.3273236 26.9442327,44.0052873 26.5495418,44.0052873 C26.1528873,44.0052873 25.8328145,44.3273236 25.8328145,44.7259418 C25.8328145,45.1225964 25.5107782,45.4446327 25.11216,45.4446327 C24.7155055,45.4446327 24.3934691,45.1225964 24.3934691,44.7259418 L24.3934691,39.9268145 C24.3934691,39.5281964 24.0714327,39.20616 23.6767418,39.20616 C23.2820509,39.20616 22.9600145,39.5281964 22.9600145,39.9268145 C22.9600145,40.3234691 22.6379782,40.6455055 22.2413236,40.6455055 C21.8446691,40.6455055 21.5206691,40.3234691 21.5206691,39.9268145 L21.5206691,38.9665964 C21.5206691,38.5699418 21.1986327,38.2459418 20.8039418,38.2459418 C20.4092509,38.2459418 20.0891782,38.5699418 20.0891782,38.9665964 L20.0891782,39.9268145 C20.0891782,40.3234691 19.7651782,40.6455055 19.3685236,40.6455055 C18.9718691,40.6455055 18.6498327,40.3234691 18.6498327,39.9268145 C18.6498327,39.5281964 18.3277964,39.20616 17.9331055,39.20616 C17.5364509,39.20616 17.2163782,39.5281964 17.2163782,39.9268145 L17.2163782,42.3263782 C17.2163782,42.7230327 16.8943418,43.0450691 16.4957236,43.0450691 C16.0990691,43.0450691 15.7770327,42.7230327 15.7770327,42.3263782 C15.7770327,41.9297236 15.4549964,41.6057236 15.0603055,41.6057236 M21.7621964,57.4424509 L19.8476509,57.4424509 C16.01856,57.4424509 12.9042327,54.3222327 12.9042327,50.4833236 L12.9042327,42.3263782 C12.9042327,41.1344509 13.8723055,40.1663782 15.0603055,40.1663782 C15.3116509,40.1663782 15.5512145,40.2095782 15.7770327,40.2900873 L15.7770327,39.9268145 C15.7770327,38.7348873 16.7431418,37.7668145 17.9331055,37.7668145 C18.2728145,37.7668145 18.5968145,37.84536 18.8835055,37.9887055 C19.2408873,37.2876873 19.9674327,36.8065964 20.8039418,36.8065964 C21.6424145,36.8065964 22.36896,37.2876873 22.7263418,37.9887055 C23.0130327,37.84536 23.3350691,37.7668145 23.6767418,37.7668145 C24.8647418,37.7668145 25.8328145,38.7348873 25.8328145,39.9268145 L25.8328145,42.6896509 C26.0566691,42.6091418 26.2981964,42.5659418 26.5495418,42.5659418 C27.7375418,42.5659418 28.7036509,43.5340145 28.7036509,44.7259418 L28.7036509,50.4833236 C28.7036509,51.41016 28.52496,52.3095055 28.1715055,53.1617236 C27.0875782,55.7615782 24.57216,57.4424509 21.7621964,57.4424509" id="Fill-86" fill="#333333"></path>
                    <line x1="25.1123564" y1="44.7255491" x2="25.1123564" y2="49.0337673" id="Fill-88" fill="#FFFFFF"></line>
                    <path d="M25.1123564,49.7536364 C24.7157018,49.7536364 24.3936655,49.4316 24.3936655,49.0329818 L24.3936655,44.7247636 C24.3936655,44.3281091 24.7157018,44.0060727 25.1123564,44.0060727 C25.5109745,44.0060727 25.8330109,44.3281091 25.8330109,44.7247636 L25.8330109,49.0329818 C25.8330109,49.4316 25.5109745,49.7536364 25.1123564,49.7536364" id="Fill-90" fill="#333333"></path>
                    <line x1="22.2407345" y1="39.9258327" x2="22.2407345" y2="47.1245236" id="Fill-92" fill="#FFFFFF"></line>
                    <path d="M22.2407345,47.8436073 C21.84408,47.8436073 21.52008,47.5215709 21.52008,47.1249164 L21.52008,39.9262255 C21.52008,39.5295709 21.84408,39.2075345 22.2407345,39.2075345 C22.6373891,39.2075345 22.9594255,39.5295709 22.9594255,39.9262255 L22.9594255,47.1249164 C22.9594255,47.5215709 22.6373891,47.8436073 22.2407345,47.8436073" id="Fill-94" fill="#333333"></path>
                    <line x1="19.3681309" y1="39.9258327" x2="19.3681309" y2="47.1245236" id="Fill-96" fill="#FFFFFF"></line>
                    <path d="M19.3691127,47.8436073 C18.9704945,47.8436073 18.6484582,47.5215709 18.6484582,47.1249164 L18.6484582,39.9262255 C18.6484582,39.5295709 18.9704945,39.2075345 19.3691127,39.2075345 C19.7657673,39.2075345 20.0878036,39.5295709 20.0878036,39.9262255 L20.0878036,47.1249164 C20.0878036,47.5215709 19.7657673,47.8436073 19.3691127,47.8436073" id="Fill-98" fill="#333333"></path>
                    <line x1="16.4965091" y1="39.9258327" x2="16.4965091" y2="47.1245236" id="Fill-100" fill="#FFFFFF"></line>
                    <path d="M16.4955273,47.8436073 C16.0988727,47.8436073 15.7768364,47.5215709 15.7768364,47.1249164 L15.7768364,39.9262255 C15.7768364,39.5295709 16.0988727,39.2075345 16.4955273,39.2075345 C16.8941455,39.2075345 17.2161818,39.5295709 17.2161818,39.9262255 L17.2161818,47.1249164 C17.2161818,47.5215709 16.8941455,47.8436073 16.4955273,47.8436073" id="Fill-102" fill="#333333"></path>
                    <path d="M59.8412291,6.82677818 L54.7730836,6.15914182 L54.9576655,5.44830545 L60.0297382,6.10219636 L59.8412291,6.82677818 Z M61.4514109,5.27157818 C61.46712,5.20677818 61.4573018,5.13805091 61.4199927,5.08110545 C61.3846473,5.02416 61.3237745,4.98881455 61.2609382,4.98096 L54.3018109,4.14052364 C54.1859564,4.12677818 54.0740291,4.20532364 54.0445745,4.32117818 L52.3754836,10.7461964 C51.8904655,10.5085964 51.2679927,10.4221964 50.6337382,10.5262691 C49.8639927,10.6519418 49.1885018,11.0328873 48.8252291,11.5453964 C48.5974473,11.8635055 48.50712,12.2149964 48.5601382,12.5547055 C48.6406473,13.0613236 49.0215927,13.4560145 49.5674836,13.6700509 C50.0093018,13.8448145 50.5551927,13.90176 51.1344655,13.8055418 C52.1614473,13.6386327 52.9743927,13.03776 53.17272,12.30336 C53.1786109,12.2915782 53.1825382,12.2797964 53.1845018,12.2680145 L54.46872,7.33339636 L59.5349018,8.00103273 L58.61592,11.5414691 C58.1230473,11.2999418 57.5084291,11.2174691 56.8722109,11.3235055 C56.1044291,11.4491782 55.4289382,11.82816 55.0656655,12.3426327 C54.8398473,12.6607418 54.7475564,13.0102691 54.8005745,13.3519418 C54.94392,14.2669964 56.0769382,14.8148509 57.3768655,14.6027782 C58.3979564,14.4358691 59.2187564,13.8291055 59.4190473,13.0927418 L61.4514109,5.27157818 Z" id="Fill-104" fill="#632ED8"></path>
                </g>
            </g>
        </g>
    </g>
</svg>