<?xml version="1.0" encoding="UTF-8"?>
<svg width="108px" height="108px" viewBox="0 0 108 108" version="1.1" xmlns="http://www.w3.org/2000/svg" xmlns:xlink="http://www.w3.org/1999/xlink">
    <title>8</title>
    <g id="2021" stroke="none" stroke-width="1" fill="none" fill-rule="evenodd">
        <g id="GUEST_PC_Main" transform="translate(-1431.000000, -279.000000)">
            <g id="8" transform="translate(1431.000000, 279.000000)">
                <rect id="Rectangle-2-Copy-16" fill="#F6F6F6" x="0" y="0" width="107.8" height="107.8" rx="31.36"></rect>
                <g id="icon_8_m" transform="translate(23.520000, 40.200000)">
                    <polygon id="Fill-1" fill="#FFFFFF" points="0.71932 25.47372 6.84628 25.47372 6.84628 1.70284 0.71932 1.70284"></polygon>
                    <g id="Group-36" transform="translate(0.000000, 0.711080)">
                        <path d="M1.43668,24.04528 L6.12892,24.04528 L6.12892,1.70912 L1.43668,1.70912 L1.43668,24.04528 Z M6.84628,25.48 L0.71736,25.48 C0.32144,25.48 0,25.15856 0,24.76264 L0,0.9898 C0,0.59388 0.32144,0.27244 0.71736,0.27244 L6.84628,0.27244 C7.2422,0.27244 7.56364,0.59388 7.56364,0.9898 L7.56364,24.76264 C7.56364,25.15856 7.2422,25.48 6.84628,25.48 L6.84628,25.48 Z" id="Fill-2" fill="#333333"></path>
                        <polygon id="Fill-4" fill="#FFFFFF" points="6.84628 24.76264 12.9752 24.76264 12.9752 0.99176 6.84628 0.99176"></polygon>
                        <path d="M7.56364,24.04528 L12.25784,24.04528 L12.25784,1.70912 L7.56364,1.70912 L7.56364,24.04528 Z M12.9752,25.48 L6.84628,25.48 C6.45036,25.48 6.12892,25.15856 6.12892,24.76264 L6.12892,0.9898 C6.12892,0.59388 6.45036,0.27244 6.84628,0.27244 L12.9752,0.27244 C13.37112,0.27244 13.69256,0.59388 13.69256,0.9898 L13.69256,24.76264 C13.69256,25.15856 13.37112,25.48 12.9752,25.48 L12.9752,25.48 Z" id="Fill-5" fill="#333333"></path>
                        <polygon id="Fill-6" fill="#FFC800" points="12.9752 24.76264 19.10412 24.76264 19.10412 0.99176 12.9752 0.99176"></polygon>
                        <path d="M13.69256,24.04528 L18.38676,24.04528 L18.38676,1.70912 L13.69256,1.70912 L13.69256,24.04528 Z M19.10412,25.48 L12.9752,25.48 C12.57928,25.48 12.25784,25.15856 12.25784,24.76264 L12.25784,0.9898 C12.25784,0.59388 12.57928,0.27244 12.9752,0.27244 L19.10412,0.27244 C19.50004,0.27244 19.82148,0.59388 19.82148,0.9898 L19.82148,24.76264 C19.82148,25.15856 19.50004,25.48 19.10412,25.48 L19.10412,25.48 Z" id="Fill-7" fill="#333333"></path>
                        <polygon id="Fill-8" fill="#FFFFFF" points="19.10412 24.76264 25.23108 24.76264 25.23108 0.99176 19.10412 0.99176"></polygon>
                        <path d="M19.82148,24.04528 L24.51372,24.04528 L24.51372,1.70912 L19.82148,1.70912 L19.82148,24.04528 Z M25.23108,25.48 L19.10412,25.48 C18.7082,25.48 18.3848,25.15856 18.3848,24.76264 L18.3848,0.9898 C18.3848,0.59388 18.7082,0.27244 19.10412,0.27244 L25.23108,0.27244 C25.627,0.27244 25.94844,0.59388 25.94844,0.9898 L25.94844,24.76264 C25.94844,25.15856 25.627,25.48 25.23108,25.48 L25.23108,25.48 Z" id="Fill-9" fill="#333333"></path>
                        <polygon id="Fill-10" fill="#FFC800" points="25.23108 24.76264 31.36 24.76264 31.36 0.99176 25.23108 0.99176"></polygon>
                        <path d="M25.94844,24.04528 L30.64264,24.04528 L30.64264,1.70912 L25.94844,1.70912 L25.94844,24.04528 Z M31.36,25.48 L25.23108,25.48 C24.83516,25.48 24.51372,25.15856 24.51372,24.76264 L24.51372,0.9898 C24.51372,0.59388 24.83516,0.27244 25.23108,0.27244 L31.36,0.27244 C31.75592,0.27244 32.07736,0.59388 32.07736,0.9898 L32.07736,24.76264 C32.07736,25.15856 31.75592,25.48 31.36,25.48 L31.36,25.48 Z" id="Fill-11" fill="#333333"></path>
                        <polygon id="Fill-12" fill="#FFFFFF" points="31.36196 24.76264 37.48892 24.76264 37.48892 0.99176 31.36196 0.99176"></polygon>
                        <path d="M32.07736,24.04528 L36.7696,24.04528 L36.7696,1.70912 L32.07736,1.70912 L32.07736,24.04528 Z M37.48892,25.48 L31.36,25.48 C30.96408,25.48 30.64264,25.15856 30.64264,24.76264 L30.64264,0.9898 C30.64264,0.59388 30.96408,0.27244 31.36,0.27244 L37.48892,0.27244 C37.88484,0.27244 38.20628,0.59388 38.20628,0.9898 L38.20628,24.76264 C38.20628,25.15856 37.88484,25.48 37.48892,25.48 L37.48892,25.48 Z" id="Fill-13" fill="#333333"></path>
                        <polygon id="Fill-14" fill="#FFC800" points="37.48892 24.76264 43.61784 24.76264 43.61784 0.99176 37.48892 0.99176"></polygon>
                        <path d="M38.20628,24.04528 L42.90048,24.04528 L42.90048,1.70912 L38.20628,1.70912 L38.20628,24.04528 Z M43.61784,25.48 L37.48892,25.48 C37.09104,25.48 36.7696,25.15856 36.7696,24.76264 L36.7696,0.9898 C36.7696,0.59388 37.09104,0.27244 37.48892,0.27244 L43.61784,0.27244 C44.01376,0.27244 44.3352,0.59388 44.3352,0.9898 L44.3352,24.76264 C44.3352,25.15856 44.01376,25.48 43.61784,25.48 L43.61784,25.48 Z" id="Fill-15" fill="#333333"></path>
                        <polygon id="Fill-16" fill="#FFFFFF" points="43.61588 24.76264 49.7448 24.76264 49.7448 0.99176 43.61588 0.99176"></polygon>
                        <path d="M44.3352,24.04528 L49.03136,24.04528 L49.03136,1.70912 L44.3352,1.70912 L44.3352,24.04528 Z M49.7448,25.48 L43.61784,25.48 C43.21996,25.48 42.89852,25.15856 42.89852,24.76264 L42.89852,0.9898 C42.89852,0.59388 43.21996,0.27244 43.61784,0.27244 L49.7448,0.27244 C50.14268,0.27244 50.46412,0.59388 50.46412,0.9898 L50.46412,24.76264 C50.46412,25.15856 50.14268,25.48 49.7448,25.48 L49.7448,25.48 Z" id="Fill-17" fill="#333333"></path>
                        <polygon id="Fill-18" fill="#FFC800" points="49.7448 24.76264 55.87372 24.76264 55.87372 0.99176 49.7448 0.99176"></polygon>
                        <path d="M50.46412,24.04528 L55.15832,24.04528 L55.15832,1.70912 L50.46412,1.70912 L50.46412,24.04528 Z M55.87372,25.48 L49.7448,25.48 C49.34888,25.48 49.02744,25.15856 49.02744,24.76264 L49.02744,0.9898 C49.02744,0.59388 49.34888,0.27244 49.7448,0.27244 L55.87372,0.27244 C56.2716,0.27244 56.59304,0.59388 56.59304,0.9898 L56.59304,24.76264 C56.59304,25.15856 56.2716,25.48 55.87372,25.48 L55.87372,25.48 Z" id="Fill-19" fill="#333333"></path>
                        <polygon id="Fill-20" fill="#FFFFFF" points="55.87372 24.76264 62.00068 24.76264 62.00068 0.99176 55.87372 0.99176"></polygon>
                        <path d="M56.59304,24.04528 L61.28724,24.04528 L61.28724,1.70912 L56.59304,1.70912 L56.59304,24.04528 Z M62.00068,25.48 L55.87372,25.48 C55.4778,25.48 55.15636,25.15856 55.15636,24.76264 L55.15636,0.9898 C55.15636,0.59388 55.4778,0.27244 55.87372,0.27244 L62.00068,0.27244 C62.39856,0.27244 62.72,0.59388 62.72,0.9898 L62.72,24.76264 C62.72,25.15856 62.39856,25.48 62.00068,25.48 L62.00068,25.48 Z" id="Fill-21" fill="#333333"></path>
                        <polygon id="Fill-22" fill="#632ED8" points="4.54916 13.62004 9.14536 13.62004 9.14536 0.24892 4.54916 0.24892"></polygon>
                        <path d="M4.54916,13.62004 L9.14536,13.62004 L9.14536,0.24892 L4.54916,0.24892 L4.54916,13.62004 Z M5.98584,12.18336 L7.70868,12.18336 L7.70868,1.6856 L5.98584,1.6856 L5.98584,12.18336 Z" id="Fill-23" fill="#333333"></path>
                        <polygon id="Fill-24" fill="#632ED8" points="10.67612 13.62004 15.27232 13.62004 15.27232 0.24892 10.67612 0.24892"></polygon>
                        <path d="M10.67612,13.62004 L15.27232,13.62004 L15.27232,0.24892 L10.67612,0.24892 L10.67612,13.62004 Z M12.1128,12.18336 L13.83564,12.18336 L13.83564,1.6856 L12.1128,1.6856 L12.1128,12.18336 Z" id="Fill-25" fill="#333333"></path>
                        <polygon id="Fill-26" fill="#632ED8" points="47.44768 13.62004 52.04388 13.62004 52.04388 0.24892 47.44768 0.24892"></polygon>
                        <path d="M47.44768,13.62004 L52.04388,13.62004 L52.04388,0.24892 L47.44768,0.24892 L47.44768,13.62004 Z M48.88436,12.18336 L50.6072,12.18336 L50.6072,1.6856 L48.88436,1.6856 L48.88436,12.18336 Z" id="Fill-27" fill="#333333"></path>
                        <polygon id="Fill-28" fill="#632ED8" points="53.57268 13.62004 58.17084 13.62004 58.17084 0.24892 53.57268 0.24892"></polygon>
                        <path d="M53.57268,13.62004 L58.17084,13.62004 L58.17084,0.24892 L53.57268,0.24892 L53.57268,13.62004 Z M55.01132,12.18336 L56.73612,12.18336 L56.73612,1.6856 L55.01132,1.6856 L55.01132,12.18336 Z" id="Fill-29" fill="#333333"></path>
                        <polygon id="Fill-30" fill="#632ED8" points="22.93396 13.62004 27.53016 13.62004 27.53016 0.24892 22.93396 0.24892"></polygon>
                        <path d="M22.93396,13.62004 L27.53016,13.62004 L27.53016,0.24892 L22.93396,0.24892 L22.93396,13.62004 Z M24.37064,12.18336 L26.09348,12.18336 L26.09348,1.6856 L24.37064,1.6856 L24.37064,12.18336 Z" id="Fill-31" fill="#333333"></path>
                        <polygon id="Fill-32" fill="#632ED8" points="29.06092 13.62004 33.65712 13.62004 33.65712 0.24892 29.06092 0.24892"></polygon>
                        <path d="M29.06092,13.62004 L33.65712,13.62004 L33.65712,0.24892 L29.06092,0.24892 L29.06092,13.62004 Z M30.49956,12.18336 L32.2224,12.18336 L32.2224,1.6856 L30.49956,1.6856 L30.49956,12.18336 Z" id="Fill-33" fill="#333333"></path>
                        <polygon id="Fill-34" fill="#632ED8" points="35.18984 13.62004 39.78604 13.62004 39.78604 0.24892 35.18984 0.24892"></polygon>
                        <path d="M35.18984,13.62004 L39.78604,13.62004 L39.78604,0.24892 L35.18984,0.24892 L35.18984,13.62004 Z M36.62848,12.18336 L38.35132,12.18336 L38.35132,1.6856 L36.62848,1.6856 L36.62848,12.18336 Z" id="Fill-35" fill="#333333"></path>
                    </g>
                </g>
            </g>
        </g>
    </g>
</svg>