<?xml version="1.0" encoding="UTF-8"?>
<svg width="108px" height="108px" viewBox="0 0 108 108" version="1.1" xmlns="http://www.w3.org/2000/svg" xmlns:xlink="http://www.w3.org/1999/xlink">
    <title>13</title>
    <defs>
        <polygon id="path-1" points="0.000146980992 0.98 48.571642 0.98 48.571642 49.724612 0.000146980992 49.724612"></polygon>
    </defs>
    <g id="2021" stroke="none" stroke-width="1" fill="none" fill-rule="evenodd">
        <g id="GUEST_PC_Main" transform="translate(-981.000000, -481.000000)">
            <g id="13" transform="translate(981.000000, 481.000000)">
                <rect id="Rectangle-2-Copy-3" fill="#F6F6F6" x="0" y="0" width="107.8" height="107.8" rx="31.36"></rect>
                <g id="icon_13_m" transform="translate(25.480000, 23.520000)">
                    <path d="M57.102444,60.043032 L57.102444,60.043032 C55.795124,61.350352 53.674404,61.350352 52.367084,60.043032 L31.056004,38.731952 L35.791364,33.994632 L57.102444,55.307672 C58.411724,56.614992 58.411724,58.735712 57.102444,60.043032" id="Fill-1" fill="#FFC800"></path>
                    <path d="M32.071284,38.731952 L52.874724,59.535392 C53.899804,60.558512 55.567764,60.562432 56.596764,59.535392 C57.090684,59.039512 57.367044,58.378992 57.367044,57.677312 C57.367044,56.973672 57.092644,56.313152 56.596764,55.815312 L35.791364,35.009912 L32.071284,38.731952 Z M54.734764,61.740392 C53.694004,61.740392 52.653244,61.344472 51.861404,60.550672 L30.548364,39.239592 C30.415084,39.104352 30.338644,38.922072 30.338644,38.731952 C30.338644,38.539872 30.415084,38.359552 30.548364,38.224312 L35.285684,33.486992 C35.564004,33.206712 36.018724,33.206712 36.299004,33.486992 L57.610084,54.800032 C58.378404,55.568352 58.799804,56.589512 58.799804,57.677312 C58.799804,58.763152 58.376444,59.784312 57.610084,60.550672 C56.816284,61.344472 55.775524,61.740392 54.734764,61.740392 L54.734764,61.740392 Z" id="Fill-3" fill="#333333"></path>
                    <path d="M40.9591,9.606548 C50.16718,18.844028 50.16718,33.820388 40.9591,43.057868 C31.75102,52.295348 16.8217,52.295348 7.61166,43.057868 C-1.59642,33.820388 -1.59642,18.844028 7.61166,9.606548 C16.8217,0.369068 31.75102,0.369068 40.9591,9.606548" id="Fill-5" fill="#632ED8"></path>
                    <g id="Group-9" transform="translate(0.000000, 0.980392)">
                        <mask id="mask-2" fill="white">
                            <use xlink:href="#path-1"></use>
                        </mask>
                        <g id="Clip-8"></g>
                        <path d="M24.285772,2.416092 C18.178412,2.416092 12.437572,4.801412 8.119692,9.134972 C-0.794388,18.076492 -0.794388,32.627532 8.119692,41.571012 C12.437572,45.902612 18.178412,48.287932 24.285772,48.287932 C30.391172,48.287932 36.133972,45.902612 40.451852,41.571012 C49.365932,32.627532 49.365932,18.076492 40.451852,9.134972 C36.133972,4.801412 30.391172,2.416092 24.285772,2.416092 M24.285772,49.724612 L24.285772,49.724612 C17.794252,49.724612 11.694732,47.188372 7.104412,42.586292 C-2.368268,33.082252 -2.368268,17.621772 7.106372,8.117732 C11.694732,3.515652 17.794252,0.979412 24.285772,0.979412 C30.775332,0.979412 36.876812,3.515652 41.467132,8.117732 C50.939812,17.621772 50.939812,33.082252 41.467132,42.586292 C36.876812,47.188372 30.775332,49.724612 24.285772,49.724612" id="Fill-7" fill="#333333" mask="url(#mask-2)"></path>
                    </g>
                    <path d="M25.901204,28.969192 C25.901204,34.402312 21.510804,38.808392 16.093364,38.808392 C10.675924,38.808392 6.285524,34.402312 6.285524,28.969192 C6.285524,23.536072 10.675924,19.129992 16.093364,19.129992 C21.510804,19.129992 25.901204,23.536072 25.901204,28.969192" id="Fill-10" fill="#FFFFFF"></path>
                    <path d="M16.09356,19.848724 C11.07988,19.848724 7.00112,23.939244 7.00112,28.968604 C7.00112,33.999924 11.07988,38.090444 16.09356,38.090444 C21.10724,38.090444 25.18404,33.999924 25.18404,28.968604 C25.18404,23.939244 21.10724,19.848724 16.09356,19.848724 M16.09356,39.527124 C10.29,39.527124 5.5664,34.791764 5.5664,28.968604 C5.5664,23.149364 10.29,18.412044 16.09356,18.412044 C21.89712,18.412044 26.61876,23.149364 26.61876,28.968604 C26.61876,34.791764 21.89712,39.527124 16.09356,39.527124" id="Fill-12" fill="#333333"></path>
                    <path d="M19.36284,28.969192 C19.36284,30.780232 17.89872,32.248272 16.09356,32.248272 C14.2884,32.248272 12.82428,30.780232 12.82428,28.969192 C12.82428,27.158152 14.2884,25.690112 16.09356,25.690112 C17.89872,25.690112 19.36284,27.158152 19.36284,28.969192" id="Fill-14" fill="#FFC800"></path>
                    <path d="M16.09356,26.408256 C14.68628,26.408256 13.54164,27.556816 13.54164,28.969976 C13.54164,30.381176 14.68628,31.531696 16.09356,31.531696 C17.50084,31.531696 18.64548,30.381176 18.64548,28.969976 C18.64548,27.556816 17.50084,26.408256 16.09356,26.408256 M16.09356,32.968376 C13.89444,32.968376 12.10692,31.173016 12.10692,28.969976 C12.10692,26.764976 13.89444,24.971576 16.09356,24.971576 C18.29268,24.971576 20.0802,26.764976 20.0802,28.969976 C20.0802,31.173016 18.29268,32.968376 16.09356,32.968376" id="Fill-16" fill="#333333"></path>
                    <path d="M23.590952,14.61768 C23.590952,17.0422 21.630952,19.00808 19.214272,19.00808 C16.795632,19.00808 14.837592,17.0422 14.837592,14.61768 C14.837592,12.19316 16.795632,10.22728 19.214272,10.22728 C21.630952,10.22728 23.590952,12.19316 23.590952,14.61768" id="Fill-18" fill="#FFC800"></path>
                    <path d="M19.214468,10.944444 C17.195668,10.944444 15.553188,12.592804 15.553188,14.617484 C15.553188,16.642164 17.195668,18.290524 19.214468,18.290524 C21.233268,18.290524 22.873788,16.642164 22.873788,14.617484 C22.873788,12.592804 21.233268,10.944444 19.214468,10.944444 M19.214468,19.727204 C16.405788,19.727204 14.118468,17.435964 14.118468,14.617484 C14.118468,11.800964 16.405788,9.507764 19.214468,9.507764 C22.023148,9.507764 24.308508,11.800964 24.308508,14.617484 C24.308508,17.435964 22.023148,19.727204 19.214468,19.727204" id="Fill-20" fill="#333333"></path>
                    <path d="M18.98848,12.583004 C18.66312,13.406204 18.00848,14.064764 17.18528,14.392084 C16.97164,14.476364 16.97164,14.758604 17.18528,14.842884 C18.00848,15.170204 18.66312,15.828764 18.98848,16.651964 C19.07276,16.867564 19.355,16.867564 19.43928,16.651964 C19.76464,15.828764 20.41928,15.170204 21.24248,14.842884 C21.45612,14.758604 21.45612,14.476364 21.24248,14.392084 C20.41928,14.064764 19.76464,13.406204 19.43928,12.583004 C19.355,12.369364 19.07276,12.369364 18.98848,12.583004" id="Fill-22" fill="#FFFFFF"></path>
                    <path d="M18.263084,14.617092 C18.631564,14.879732 18.954964,15.201172 19.213684,15.571612 C19.474364,15.201172 19.795804,14.879732 20.164284,14.617092 C19.795804,14.356412 19.474364,14.033012 19.213684,13.664532 C18.954964,14.033012 18.631564,14.356412 18.263084,14.617092 M19.213684,17.531612 C18.817764,17.531612 18.468884,17.290532 18.321884,16.916172 C18.069044,16.277212 17.557484,15.763692 16.920484,15.510852 C16.548084,15.361892 16.308964,15.011052 16.308964,14.617092 C16.308964,14.223132 16.548084,13.872292 16.918524,13.725292 C17.557484,13.470492 18.069044,12.958932 18.321884,12.318012 C18.617844,11.569292 19.811484,11.573212 20.105484,12.319972 C20.358324,12.958932 20.869884,13.470492 21.506884,13.723332 C21.879284,13.872292 22.120364,14.223132 22.120364,14.617092 C22.120364,15.011052 21.879284,15.361892 21.508844,15.508892 C20.869884,15.763692 20.358324,16.277212 20.105484,16.918132 C19.958484,17.290532 19.609604,17.531612 19.213684,17.531612" id="Fill-24" fill="#333333"></path>
                    <path d="M31.251024,12.787824 C31.251024,15.212344 29.291024,17.178224 26.874344,17.178224 C24.457664,17.178224 22.497664,15.212344 22.497664,12.787824 C22.497664,10.363304 24.457664,8.397424 26.874344,8.397424 C29.291024,8.397424 31.251024,10.363304 31.251024,12.787824" id="Fill-26" fill="#FFC800"></path>
                    <path d="M26.87356,9.115568 C24.85672,9.115568 23.21424,10.763928 23.21424,12.788608 C23.21424,14.813288 24.85672,16.461648 26.87356,16.461648 C28.89236,16.461648 30.53484,14.813288 30.53484,12.788608 C30.53484,10.763928 28.89236,9.115568 26.87356,9.115568 M26.87356,17.896368 C24.06488,17.896368 21.77952,15.605128 21.77952,12.788608 C21.77952,9.972088 24.06488,7.678888 26.87356,7.678888 C29.6842,7.678888 31.9676,9.972088 31.9676,12.788608 C31.9676,15.605128 29.6842,17.896368 26.87356,17.896368" id="Fill-28" fill="#333333"></path>
                    <path d="M26.648748,10.753148 C26.323388,11.578308 25.668748,12.234908 24.845548,12.562228 C24.631908,12.646508 24.631908,12.928748 24.845548,13.013028 C25.668748,13.340348 26.323388,13.998908 26.648748,14.824068 C26.733028,15.037708 27.015268,15.037708 27.099548,14.824068 C27.424908,13.998908 28.079548,13.340348 28.902748,13.013028 C29.116388,12.928748 29.116388,12.646508 28.902748,12.562228 C28.079548,12.234908 27.424908,11.578308 27.099548,10.753148 C27.015268,10.539508 26.733028,10.539508 26.648748,10.753148" id="Fill-30" fill="#FFFFFF"></path>
                    <path d="M25.922764,12.78802 C26.293204,13.0487 26.614644,13.3721 26.873364,13.74058 C27.134044,13.3721 27.455484,13.0487 27.823964,12.78802 C27.455484,12.52734 27.134044,12.20394 26.873364,11.83546 C26.612684,12.20394 26.293204,12.52734 25.922764,12.78802 L25.922764,12.78802 Z M26.873364,15.70254 C26.479404,15.70254 26.130524,15.46146 25.983524,15.08906 C25.728724,14.44814 25.217164,13.93462 24.580164,13.68178 C24.207764,13.53282 23.968644,13.18198 23.968644,12.78802 C23.968644,12.39406 24.207764,12.04322 24.580164,11.89426 C25.217164,11.64142 25.728724,11.12986 25.983524,10.48894 L25.983524,10.48698 C26.130524,10.11654 26.481364,9.87546 26.873364,9.87546 L26.875324,9.87546 C27.271244,9.87546 27.620124,10.1185 27.767124,10.4909 C28.019964,11.12986 28.529564,11.64142 29.166564,11.89426 C29.538964,12.04322 29.780044,12.39406 29.780044,12.78802 C29.780044,13.18198 29.538964,13.53282 29.168524,13.68178 C28.529564,13.93462 28.019964,14.44814 27.765164,15.0871 C27.620124,15.4595 27.271244,15.70058 26.875324,15.70254 L26.873364,15.70254 Z" id="Fill-32" fill="#333333"></path>
                    <path d="M28.332976,20.106268 C28.332976,22.530788 26.372976,24.496668 23.956296,24.496668 C21.537656,24.496668 19.579616,22.530788 19.579616,20.106268 C19.579616,17.681748 21.537656,15.715868 23.956296,15.715868 C26.372976,15.715868 28.332976,17.681748 28.332976,20.106268" id="Fill-34" fill="#FFC800"></path>
                    <path d="M23.955512,16.434012 C21.936712,16.434012 20.296192,18.082372 20.296192,20.107052 C20.296192,22.131732 21.936712,23.778132 23.955512,23.778132 C25.974312,23.778132 27.616792,22.131732 27.616792,20.107052 C27.616792,18.082372 25.974312,16.434012 23.955512,16.434012 M23.955512,25.214812 C21.146832,25.214812 18.861472,22.923572 18.861472,20.107052 C18.861472,17.290532 21.146832,14.997332 23.955512,14.997332 C26.764192,14.997332 29.051512,17.290532 29.051512,20.107052 C29.051512,22.923572 26.764192,25.214812 23.955512,25.214812" id="Fill-36" fill="#333333"></path>
                    <path d="M23.7307,18.071592 C23.40534,18.894792 22.7507,19.553352 21.9275,19.880672 C21.71386,19.964952 21.71386,20.247192 21.9275,20.331472 C22.7507,20.658792 23.40534,21.317352 23.7307,22.142512 C23.81498,22.356152 24.09722,22.356152 24.1815,22.142512 C24.50686,21.317352 25.1615,20.658792 25.9847,20.331472 C26.19834,20.247192 26.19834,19.964952 25.9847,19.880672 C25.1615,19.553352 24.50686,18.894792 24.1815,18.071592 C24.09722,17.857952 23.81498,17.857952 23.7307,18.071592" id="Fill-38" fill="#FFFFFF"></path>
                    <path d="M23.005696,20.106464 C23.374176,20.367144 23.695616,20.690544 23.956296,21.059024 C24.215016,20.690544 24.538416,20.367144 24.904936,20.106464 C24.538416,19.845784 24.215016,19.522384 23.956296,19.153904 C23.695616,19.522384 23.374176,19.845784 23.005696,20.106464 L23.005696,20.106464 Z M23.956296,23.020984 C23.560376,23.020984 23.211496,22.779904 23.064496,22.407504 C22.811656,21.766584 22.300096,21.253064 21.661136,21.000224 C21.290696,20.851264 21.049616,20.500424 21.049616,20.106464 C21.049616,19.712504 21.290696,19.361664 21.661136,19.212704 C22.300096,18.959864 22.811656,18.448304 23.064496,17.807384 L23.064496,17.805424 C23.211496,17.434984 23.562336,17.193904 23.956296,17.193904 L23.958256,17.193904 C24.352216,17.193904 24.701096,17.436944 24.848096,17.809344 C25.100936,18.448304 25.610536,18.959864 26.249496,19.212704 C26.621896,19.361664 26.861016,19.712504 26.861016,20.106464 C26.861016,20.500424 26.621896,20.851264 26.251456,20.998264 C25.610536,21.253064 25.100936,21.766584 24.848096,22.405544 C24.701096,22.777944 24.352216,23.019024 23.958256,23.020984 L23.956296,23.020984 Z" id="Fill-40" fill="#333333"></path>
                    <path d="M25.77008,42.33796 L25.77008,42.33796 C24.40592,41.77152 23.75716,40.20156 24.32164,38.83152 L32.51052,18.99828 C33.07696,17.6302 34.64104,16.97948 36.00716,17.54592 C37.37132,18.11432 38.02008,19.68232 37.45364,21.05236 L29.26476,40.8856 C28.70028,42.25564 27.13424,42.90636 25.77008,42.33796" id="Fill-42" fill="#FFFFFF"></path>
                    <path d="M34.981492,18.059048 C34.728652,18.059048 34.475812,18.108048 34.234732,18.209968 C33.750612,18.409888 33.374292,18.788168 33.174372,19.274248 L24.985492,39.105528 C24.569972,40.109048 25.046252,41.259568 26.043892,41.675088 C26.528012,41.875008 27.059172,41.873048 27.541332,41.675088 C28.025452,41.475168 28.401772,41.096888 28.603652,40.610808 L36.790572,20.777568 C37.206092,19.776008 36.729812,18.625488 35.732172,18.209968 C35.489132,18.110008 35.236292,18.059048 34.981492,18.059048 M26.794572,43.262688 C26.353572,43.262688 25.914532,43.174488 25.495092,43.002008 C23.766372,42.282688 22.943172,40.291328 23.660532,38.556728 L31.847452,18.723488 C32.196332,17.884608 32.849012,17.229968 33.685932,16.881088 C34.522852,16.536128 35.446012,16.534168 36.280972,16.883048 C38.009692,17.602368 38.832892,19.593728 38.117492,21.326368 L29.928612,41.159608 C29.581692,42.000448 28.927052,42.655088 28.088172,43.003968 C27.672652,43.176448 27.231652,43.262688 26.794572,43.262688" id="Fill-44" fill="#333333"></path>
                    <path d="M29.64794,43.949668 L29.64794,43.949668 C28.28378,43.381268 27.63502,41.813268 28.1995,40.443228 L36.38838,20.609988 C36.95482,19.241908 38.5189,18.591188 39.88502,19.157628 C41.24918,19.726028 41.89794,21.294028 41.3315,22.664068 L33.14262,42.497308 C32.57814,43.867348 31.0121,44.516108 29.64794,43.949668" id="Fill-46" fill="#FFFFFF"></path>
                    <path d="M38.860332,19.670756 C38.607492,19.670756 38.354652,19.719756 38.111612,19.821676 C37.629452,20.021596 37.253132,20.399876 37.053212,20.883996 L28.862372,40.717236 C28.448812,41.720756 28.925092,42.871276 29.922732,43.286796 C30.406852,43.486716 30.936052,43.486716 31.420172,43.286796 C31.904292,43.084916 32.280612,42.706636 32.480532,42.222516 L40.669412,22.389276 C41.082972,21.387716 40.606692,20.235236 39.609052,19.821676 C39.367972,19.719756 39.113172,19.670756 38.860332,19.670756 M30.671452,44.872436 C30.232412,44.872436 29.793372,44.786196 29.373932,44.613716 C27.645212,43.896356 26.822012,41.903036 27.537412,40.168436 L35.726292,20.335196 C36.073212,19.496316 36.725892,18.841676 37.562812,18.492796 C38.403652,18.147836 39.322892,18.147836 40.157852,18.494756 C41.886572,19.212116 42.709772,21.205436 41.996332,22.938076 L33.805492,42.771316 C33.460532,43.610196 32.807852,44.264836 31.968972,44.613716 C31.551492,44.786196 31.110492,44.872436 30.671452,44.872436" id="Fill-48" fill="#333333"></path>
                    <path d="M39.383848,26.444516 C39.293688,26.444516 39.199608,26.426876 39.109448,26.389636 L37.463048,25.705596 C37.096528,25.554676 36.922088,25.135236 37.073008,24.768716 C37.225888,24.402196 37.647288,24.227756 38.011848,24.380636 L39.658248,25.062716 C40.024768,25.215596 40.199208,25.635036 40.046328,26.001556 C39.932648,26.279876 39.666088,26.444516 39.383848,26.444516" id="Fill-50" fill="#333333"></path>
                    <path d="M38.02008,29.751232 C37.92796,29.751232 37.83584,29.733592 37.74568,29.696352 L36.09928,29.012312 C35.73276,28.859432 35.55832,28.439992 35.7112,28.073472 C35.86212,27.706952 36.28156,27.534472 36.64612,27.685392 L38.29448,28.369432 C38.661,28.522312 38.83544,28.941752 38.68256,29.308272 C38.56888,29.584632 38.30036,29.751232 38.02008,29.751232" id="Fill-52" fill="#333333"></path>
                    <path d="M36.654352,33.056772 C36.562232,33.056772 36.470112,33.039132 36.379952,33.001892 L34.733552,32.317852 C34.367032,32.164972 34.192592,31.745532 34.345472,31.379012 C34.496392,31.012492 34.915832,30.840012 35.282352,30.990932 L36.928752,31.674972 C37.295272,31.827852 37.469712,32.247292 37.316832,32.611852 C37.203152,32.890172 36.936592,33.056772 36.654352,33.056772" id="Fill-54" fill="#333333"></path>
                    <path d="M35.289604,36.362312 C35.199444,36.362312 35.105364,36.344672 35.015204,36.307432 L33.368804,35.623392 C33.002284,35.470512 32.827844,35.051072 32.980724,34.684552 C33.131644,34.318032 33.551084,34.143592 33.917604,34.296472 L35.564004,34.980512 C35.930524,35.133392 36.104964,35.552832 35.952084,35.919352 C35.838404,36.195712 35.571844,36.362312 35.289604,36.362312" id="Fill-56" fill="#333333"></path>
                    <path d="M33.925836,39.667852 C33.833716,39.667852 33.741596,39.650212 33.651436,39.612972 L32.003076,38.928932 C31.636556,38.776052 31.464076,38.356612 31.614996,37.990092 C31.765916,37.623572 32.187316,37.449132 32.551876,37.602012 L34.200236,38.286052 C34.566756,38.438932 34.741196,38.858372 34.588316,39.224892 C34.474636,39.501252 34.208076,39.667852 33.925836,39.667852" id="Fill-58" fill="#333333"></path>
                </g>
            </g>
        </g>
    </g>
</svg>