<?xml version="1.0" encoding="UTF-8"?>
<svg width="108px" height="108px" viewBox="0 0 108 108" version="1.1" xmlns="http://www.w3.org/2000/svg" xmlns:xlink="http://www.w3.org/1999/xlink">
    <title>11</title>
    <g id="2021" stroke="none" stroke-width="1" fill="none" fill-rule="evenodd">
        <g id="GUEST_PC_Main" transform="translate(-681.000000, -481.000000)">
            <g id="11" transform="translate(681.000000, 481.000000)">
                <rect id="Rectangle-2" fill="#F6F6F6" x="0" y="0" width="107.8" height="107.8" rx="31.36"></rect>
                <g id="icon_11_m" transform="translate(23.520000, 23.520000)">
                    <polygon id="Fill-1" fill="#FFFFFF" points="0.71736 24.40984 62.00264 24.40984 62.00264 0.74088 0.71736 0.74088"></polygon>
                    <g id="Group-48">
                        <path d="M1.43668,23.67092 L61.28332,23.67092 L61.28332,1.4798 L1.43668,1.4798 L1.43668,23.67092 Z M62.00264,25.14876 L0.71736,25.14876 C0.32144,25.14876 0,24.81752 0,24.40984 L0,0.73892 C0,0.33124 0.32144,0 0.71736,0 L62.00264,0 C62.39856,0 62.72,0.33124 62.72,0.73892 L62.72,24.40984 C62.72,24.81752 62.39856,25.14876 62.00264,25.14876 L62.00264,25.14876 Z" id="Fill-2" fill="#333333"></path>
                        <polygon id="Fill-4" fill="#632ED8" points="0.71736 39.74684 62.00264 39.74684 62.00264 32.08912 0.71736 32.08912"></polygon>
                        <path d="M1.43668,39.02948 L61.28332,39.02948 L61.28332,32.80844 L1.43668,32.80844 L1.43668,39.02948 Z M62.00264,40.4642 L0.71736,40.4642 C0.32144,40.4642 0,40.14276 0,39.74684 L0,32.08912 C0,31.6932 0.32144,31.37176 0.71736,31.37176 L62.00264,31.37176 C62.39856,31.37176 62.72,31.6932 62.72,32.08912 L62.72,39.74684 C62.72,40.14276 62.39856,40.4642 62.00264,40.4642 L62.00264,40.4642 Z" id="Fill-5" fill="#333333"></path>
                        <path d="M12.20884,44.883608 L4.54916,44.883608 L4.54916,39.140808 C4.54916,37.025968 6.2622,35.310968 8.37704,35.310968 L8.379,35.310968 C10.49384,35.310968 12.20884,37.025968 12.20884,39.140808 L12.20884,44.883608 Z" id="Fill-6" fill="#FFC800"></path>
                        <path d="M5.26652,44.165856 L11.49148,44.165856 L11.49148,39.140416 C11.49148,37.425416 10.094,36.029896 8.379,36.029896 C6.66204,36.029896 5.26652,37.425416 5.26652,39.140416 L5.26652,44.165856 Z M12.9262,45.600576 L3.82984,45.600576 L3.82984,39.140416 C3.82984,36.633576 5.8702,34.593216 8.379,34.593216 C10.88584,34.593216 12.9262,36.633576 12.9262,39.140416 L12.9262,45.600576 Z" id="Fill-7" fill="#333333"></path>
                        <polygon id="Fill-8" fill="#333333" points="3.82984 49.67032 5.26652 49.67032 5.26652 43.92752 3.82984 43.92752"></polygon>
                        <polygon id="Fill-9" fill="#333333" points="11.49148 49.67032 12.9262 49.67032 12.9262 43.92752 11.49148 43.92752"></polygon>
                        <path d="M23.699928,44.883608 L16.038288,44.883608 L16.038288,39.140808 C16.038288,37.025968 17.753288,35.310968 19.868128,35.310968 L19.870088,35.310968 C21.984928,35.310968 23.699928,37.025968 23.699928,39.140808 L23.699928,44.883608 Z" id="Fill-10" fill="#FFC800"></path>
                        <path d="M16.757608,44.165856 L22.980608,44.165856 L22.980608,39.140416 C22.980608,37.425416 21.585088,36.029896 19.868128,36.029896 C18.153128,36.029896 16.757608,37.425416 16.757608,39.140416 L16.757608,44.165856 Z M24.417288,45.600576 L15.320928,45.600576 L15.320928,39.140416 C15.320928,36.633576 17.361288,34.593216 19.868128,34.593216 C22.376928,34.593216 24.417288,36.633576 24.417288,39.140416 L24.417288,45.600576 Z" id="Fill-11" fill="#333333"></path>
                        <polygon id="Fill-12" fill="#333333" points="15.32132 49.67032 16.758 49.67032 16.758 43.92752 15.32132 43.92752"></polygon>
                        <polygon id="Fill-13" fill="#333333" points="22.981 49.67032 24.41768 49.67032 24.41768 43.92752 22.981 43.92752"></polygon>
                        <path d="M35.190036,44.883608 L27.530356,44.883608 L27.530356,39.140808 C27.530356,37.025968 29.243396,35.310968 31.358236,35.310968 L31.360196,35.310968 C33.475036,35.310968 35.190036,37.025968 35.190036,39.140808 L35.190036,44.883608 Z" id="Fill-14" fill="#FFC800"></path>
                        <path d="M28.247716,44.165856 L34.472676,44.165856 L34.472676,39.140416 C34.472676,37.425416 33.075196,36.029896 31.360196,36.029896 C29.643236,36.029896 28.247716,37.425416 28.247716,39.140416 L28.247716,44.165856 Z M35.909356,45.600576 L26.811036,45.600576 L26.811036,39.140416 C26.811036,36.633576 28.851396,34.593216 31.360196,34.593216 C33.868996,34.593216 35.909356,36.633576 35.909356,39.140416 L35.909356,45.600576 Z" id="Fill-15" fill="#333333"></path>
                        <polygon id="Fill-16" fill="#333333" points="26.81084 49.67032 28.24752 49.67032 28.24752 43.92752 26.81084 43.92752"></polygon>
                        <polygon id="Fill-17" fill="#333333" points="34.47248 49.67032 35.90916 49.67032 35.90916 43.92752 34.47248 43.92752"></polygon>
                        <path d="M46.681124,44.883608 L39.019484,44.883608 L39.019484,39.140808 C39.019484,37.025968 40.734484,35.310968 42.849324,35.310968 L42.851284,35.310968 C44.966124,35.310968 46.681124,37.025968 46.681124,39.140808 L46.681124,44.883608 Z" id="Fill-18" fill="#FFC800"></path>
                        <path d="M39.738804,44.165856 L45.961804,44.165856 L45.961804,39.140416 C45.961804,37.425416 44.566284,36.029896 42.851284,36.029896 C41.134324,36.029896 39.738804,37.425416 39.738804,39.140416 L39.738804,44.165856 Z M47.398484,45.600576 L38.302124,45.600576 L38.302124,39.140416 C38.302124,36.633576 40.342484,34.593216 42.851284,34.593216 C45.358124,34.593216 47.398484,36.633576 47.398484,39.140416 L47.398484,45.600576 Z" id="Fill-19" fill="#333333"></path>
                        <polygon id="Fill-20" fill="#333333" points="38.30232 49.67032 39.739 49.67032 39.739 43.92752 38.30232 43.92752"></polygon>
                        <polygon id="Fill-21" fill="#333333" points="45.962 49.67032 47.39868 49.67032 47.39868 43.92752 45.962 43.92752"></polygon>
                        <path d="M58.171232,44.883608 L50.511552,44.883608 L50.511552,39.140808 C50.511552,37.025968 52.226552,35.310968 54.341392,35.310968 C56.456232,35.310968 58.171232,37.025968 58.171232,39.140808 L58.171232,44.883608 Z" id="Fill-22" fill="#FFC800"></path>
                        <path d="M51.228912,44.165856 L57.453872,44.165856 L57.453872,39.140416 C57.453872,37.425416 56.056392,36.029896 54.341392,36.029896 C52.624432,36.029896 51.228912,37.425416 51.228912,39.140416 L51.228912,44.165856 Z M58.890552,45.600576 L49.794192,45.600576 L49.794192,39.140416 C49.794192,36.633576 51.834552,34.593216 54.341392,34.593216 C56.850192,34.593216 58.890552,36.633576 58.890552,39.140416 L58.890552,45.600576 Z" id="Fill-23" fill="#333333"></path>
                        <polygon id="Fill-24" fill="#333333" points="49.7938 49.67032 51.22852 49.67032 51.22852 43.92752 49.7938 43.92752"></polygon>
                        <polygon id="Fill-25" fill="#333333" points="57.45348 49.67032 58.89016 49.67032 58.89016 43.92752 57.45348 43.92752"></polygon>
                        <polygon id="Fill-26" fill="#632ED8" points="0.71736 51.2344 62.00264 51.2344 62.00264 43.57668 0.71736 43.57668"></polygon>
                        <path d="M1.43668,50.51508 L61.28332,50.51508 L61.28332,44.29404 L1.43668,44.29404 L1.43668,50.51508 Z M62.00264,51.95176 L0.71736,51.95176 C0.32144,51.95176 0,51.63032 0,51.2344 L0,43.57472 C0,43.1788 0.32144,42.85736 0.71736,42.85736 L62.00264,42.85736 C62.39856,42.85736 62.72,43.1788 62.72,43.57472 L62.72,51.2344 C62.72,51.63032 62.39856,51.95176 62.00264,51.95176 L62.00264,51.95176 Z" id="Fill-27" fill="#333333"></path>
                        <path d="M12.20884,57.93466 L4.54916,57.93466 L4.54916,52.19186 C4.54916,50.07702 6.2622,48.36202 8.37704,48.36202 L8.379,48.36202 C10.49384,48.36202 12.20884,50.07702 12.20884,52.19186 L12.20884,57.93466 Z" id="Fill-28" fill="#FFC800"></path>
                        <path d="M5.26652,57.215928 L11.49148,57.215928 L11.49148,52.190488 C11.49148,50.475488 10.094,49.079968 8.379,49.079968 C6.66204,49.079968 5.26652,50.475488 5.26652,52.190488 L5.26652,57.215928 Z M12.9262,58.652608 L3.82984,58.652608 L3.82984,52.190488 C3.82984,49.683648 5.8702,47.643288 8.379,47.643288 C10.88584,47.643288 12.9262,49.683648 12.9262,52.190488 L12.9262,58.652608 Z" id="Fill-29" fill="#333333"></path>
                        <polygon id="Fill-30" fill="#333333" points="3.82984 62.72 5.26652 62.72 5.26652 56.97524 3.82984 56.97524"></polygon>
                        <polygon id="Fill-31" fill="#333333" points="11.49148 62.72 12.9262 62.72 12.9262 56.97524 11.49148 56.97524"></polygon>
                        <path d="M23.699928,57.93466 L16.038288,57.93466 L16.038288,52.19186 C16.038288,50.07702 17.753288,48.36202 19.868128,48.36202 L19.870088,48.36202 C21.984928,48.36202 23.699928,50.07702 23.699928,52.19186 L23.699928,57.93466 Z" id="Fill-32" fill="#FFC800"></path>
                        <path d="M16.757608,57.215928 L22.980608,57.215928 L22.980608,52.190488 C22.980608,50.475488 21.585088,49.079968 19.868128,49.079968 C18.153128,49.079968 16.757608,50.475488 16.757608,52.190488 L16.757608,57.215928 Z M24.417288,58.652608 L15.320928,58.652608 L15.320928,52.190488 C15.320928,49.683648 17.361288,47.643288 19.868128,47.643288 C22.376928,47.643288 24.417288,49.683648 24.417288,52.190488 L24.417288,58.652608 Z" id="Fill-33" fill="#333333"></path>
                        <polygon id="Fill-34" fill="#333333" points="15.32132 62.72 16.758 62.72 16.758 56.97524 15.32132 56.97524"></polygon>
                        <polygon id="Fill-35" fill="#333333" points="22.981 62.72 24.41768 62.72 24.41768 56.97524 22.981 56.97524"></polygon>
                        <path d="M35.190036,57.93466 L27.530356,57.93466 L27.530356,52.19186 C27.530356,50.07702 29.243396,48.36202 31.358236,48.36202 L31.360196,48.36202 C33.475036,48.36202 35.190036,50.07702 35.190036,52.19186 L35.190036,57.93466 Z" id="Fill-36" fill="#FFC800"></path>
                        <path d="M28.247716,57.215928 L34.472676,57.215928 L34.472676,52.190488 C34.472676,50.475488 33.075196,49.079968 31.360196,49.079968 C29.643236,49.079968 28.247716,50.475488 28.247716,52.190488 L28.247716,57.215928 Z M35.909356,58.652608 L26.811036,58.652608 L26.811036,52.190488 C26.811036,49.683648 28.851396,47.643288 31.360196,47.643288 C33.868996,47.643288 35.909356,49.683648 35.909356,52.190488 L35.909356,58.652608 Z" id="Fill-37" fill="#333333"></path>
                        <polygon id="Fill-38" fill="#333333" points="26.81084 62.72 28.24752 62.72 28.24752 56.97524 26.81084 56.97524"></polygon>
                        <polygon id="Fill-39" fill="#333333" points="34.47248 62.72 35.90916 62.72 35.90916 56.97524 34.47248 56.97524"></polygon>
                        <path d="M46.681124,57.93466 L39.019484,57.93466 L39.019484,52.19186 C39.019484,50.07702 40.734484,48.36202 42.849324,48.36202 L42.851284,48.36202 C44.966124,48.36202 46.681124,50.07702 46.681124,52.19186 L46.681124,57.93466 Z" id="Fill-40" fill="#FFC800"></path>
                        <path d="M39.738804,57.215928 L45.961804,57.215928 L45.961804,52.190488 C45.961804,50.475488 44.566284,49.079968 42.851284,49.079968 C41.134324,49.079968 39.738804,50.475488 39.738804,52.190488 L39.738804,57.215928 Z M47.398484,58.652608 L38.302124,58.652608 L38.302124,52.190488 C38.302124,49.683648 40.342484,47.643288 42.851284,47.643288 C45.358124,47.643288 47.398484,49.683648 47.398484,52.190488 L47.398484,58.652608 Z" id="Fill-41" fill="#333333"></path>
                        <polygon id="Fill-42" fill="#333333" points="38.30232 62.72 39.739 62.72 39.739 56.97524 38.30232 56.97524"></polygon>
                        <polygon id="Fill-43" fill="#333333" points="45.962 62.72 47.39868 62.72 47.39868 56.97524 45.962 56.97524"></polygon>
                        <path d="M58.171232,57.93466 L50.511552,57.93466 L50.511552,52.19186 C50.511552,50.07702 52.226552,48.36202 54.341392,48.36202 C56.456232,48.36202 58.171232,50.07702 58.171232,52.19186 L58.171232,57.93466 Z" id="Fill-44" fill="#FFC800"></path>
                        <path d="M51.228912,57.215928 L57.453872,57.215928 L57.453872,52.190488 C57.453872,50.475488 56.056392,49.079968 54.341392,49.079968 C52.624432,49.079968 51.228912,50.475488 51.228912,52.190488 L51.228912,57.215928 Z M58.890552,58.652608 L49.794192,58.652608 L49.794192,52.190488 C49.794192,49.683648 51.834552,47.643288 54.341392,47.643288 C56.850192,47.643288 58.890552,49.683648 58.890552,52.190488 L58.890552,58.652608 Z" id="Fill-45" fill="#333333"></path>
                        <polygon id="Fill-46" fill="#333333" points="49.7938 62.72 51.22852 62.72 51.22852 56.97524 49.7938 56.97524"></polygon>
                        <polygon id="Fill-47" fill="#333333" points="57.45348 62.72 58.89016 62.72 58.89016 56.97524 57.45348 56.97524"></polygon>
                    </g>
                </g>
            </g>
        </g>
    </g>
</svg>