<?xml version="1.0" encoding="UTF-8"?>
<svg width="108px" height="108px" viewBox="0 0 108 108" version="1.1" xmlns="http://www.w3.org/2000/svg" xmlns:xlink="http://www.w3.org/1999/xlink">
    <title>5</title>
    <defs>
        <polygon id="path-1" points="0 0.495309091 52.0355782 0.495309091 52.0355782 53.5684727 0 53.5684727"></polygon>
    </defs>
    <g id="2021" stroke="none" stroke-width="1" fill="none" fill-rule="evenodd">
        <g id="GUEST_PC_Main" transform="translate(-981.000000, -279.000000)">
            <g id="5" transform="translate(981.000000, 279.000000)">
                <rect id="Rectangle-2-Copy" fill="#F6F6F6" x="0" y="0" width="108" height="108" rx="31.4181818"></rect>
                <g id="icon_5_m" transform="translate(27.490909, 25.527273)">
                    <path d="M47.0522618,57.6077891 L47.0522618,57.6077891 C47.9830255,57.1973891 48.40128,56.1193527 47.9869527,55.1964436 L36.7353164,30.1757891 L33.3657164,31.6622618 L44.6173527,56.6829164 C45.03168,57.6038618 46.1214982,58.0181891 47.0522618,57.6077891" id="Fill-1" fill="#FFFFFF"></path>
                    <path d="M26.0276073,58.1772436 L26.0099345,58.1772436 C24.9966982,58.1772436 24.1758982,57.3564436 24.1758982,56.3412436 L24.1758982,28.9622618 L27.8636073,28.9622618 L27.8636073,56.3412436 C27.8636073,57.3564436 27.0408436,58.1772436 26.0276073,58.1772436" id="Fill-3" fill="#FFFFFF"></path>
                    <path d="M4.98547636,57.6077891 L4.98547636,57.6077891 C4.05471273,57.1973891 3.63645818,56.1193527 4.05078545,55.1964436 L15.3004582,30.1757891 L18.6700582,31.6622618 L7.41842182,56.6829164 C7.00409455,57.6038618 5.91624,58.0181891 4.98547636,57.6077891" id="Fill-5" fill="#FFFFFF"></path>
                    <path d="M38.6626255,6.29325818 L13.3729527,6.29325818 L13.3729527,5.78664 C13.3729527,2.99238545 15.6370255,0.728312727 18.43128,0.728312727 L33.6042982,0.728312727 C36.3985527,0.728312727 38.6626255,2.99238545 38.6626255,5.78664 L38.6626255,6.29325818 Z" id="Fill-7" fill="#FFC800"></path>
                    <path d="M14.1095127,5.56278545 L37.9264582,5.56278545 C37.80864,3.28104 35.9137309,1.45878545 33.6084218,1.45878545 L18.4295127,1.45878545 C16.1183127,1.45878545 14.2273309,3.28104 14.1095127,5.56278545 L14.1095127,5.56278545 Z M39.3913309,7.02373091 L12.64464,7.02373091 L12.64464,5.78860364 C12.64464,2.59573091 15.2386036,-0.000196363636 18.4295127,-0.000196363636 L33.6084218,-0.000196363636 C36.7973673,-0.000196363636 39.3913309,2.59573091 39.3913309,5.78860364 L39.3913309,7.02373091 Z" id="Fill-9" fill="#333333"></path>
                    <path d="M47.3206909,55.4974691 C47.4404727,55.7605964 47.4483273,56.0551418 47.3442545,56.3280873 C47.2401818,56.6029964 47.0320364,56.82096 46.7571273,56.9407418 C46.1994545,57.1861964 45.5318182,56.9407418 45.2824364,56.3830691 L36.7720364,37.4536145 L35.1716727,37.4536145 L43.9530545,56.9819782 C44.3791636,57.9304145 45.3217091,58.4959418 46.3054909,58.4959418 C46.6530545,58.4959418 47.0084727,58.4252509 47.3462182,58.2779782 C47.9765455,57.9991418 48.4615636,57.4925236 48.7050545,56.8504145 C48.9505091,56.2122327 48.9289091,55.5190691 48.6520364,54.89856 L40.8092727,37.4536145 L39.2069455,37.4536145 L47.3206909,55.4974691 Z" id="Fill-11" fill="#333333"></path>
                    <polygon id="Fill-13" fill="#FFFFFF" points="36.3673309 31.1360073 34.3349673 32.0333891 36.77184 37.4530255 39.2067491 37.4530255"></polygon>
                    <path d="M45.0157745,6.15344727 L7.01941091,6.15344727 C3.54770182,6.15344727 0.729883636,8.96930182 0.729883636,12.4429745 L0.729883636,31.16232 C0.729883636,34.6359927 3.54770182,37.4538109 7.01941091,37.4538109 L35.1720655,37.4538109 L32.7018109,31.96152 C32.6232655,31.7847927 32.6193382,31.5825382 32.6861018,31.4018836 C32.7567927,31.2192655 32.8942473,31.0739564 33.0729382,30.9934473 L36.4425382,29.5089382 C36.79992,29.34792 37.2358473,29.5109018 37.4007927,29.8761382 L40.8077018,37.4538109 L45.0157745,37.4538109 C48.4914109,37.4538109 51.3072655,34.6359927 51.3072655,31.16232 L51.3072655,12.4429745 C51.3072655,8.96930182 48.4914109,6.15344727 45.0157745,6.15344727" id="Fill-15" fill="#FFFFFF"></path>
                    <path d="M36.4421455,29.5079564 L33.0725455,30.9924655 C32.8938545,31.0729745 32.7564,31.2182836 32.6857091,31.4009018 C32.6189455,31.5815564 32.6248364,31.7838109 32.7033818,31.9605382 L35.1736364,37.4528291 L36.7720364,37.4528291 L34.3351636,32.0331927 L36.3675273,31.1358109 L39.2069455,37.4528291 L40.8092727,37.4528291 L37.4004,29.8751564 C37.2354545,29.50992 36.8014909,29.3469382 36.4421455,29.5079564" id="Fill-17" fill="#FFFFFF"></path>
                    <path d="M37.0824873,21.80304 C37.0824873,27.8530036 32.13216,32.7581673 26.0173964,32.7581673 C19.9085236,32.7581673 14.9542691,27.8530036 14.9542691,21.80304 C14.9542691,15.7511127 19.9085236,10.8459491 26.0173964,10.8459491 C32.13216,10.8459491 37.0824873,15.7511127 37.0824873,21.80304" id="Fill-19" fill="#632ED8"></path>
                    <path d="M26.0179855,10.8467345 C19.9091127,10.8467345 14.9548582,15.7518982 14.9548582,21.8038255 C14.9548582,27.8537891 19.9091127,32.7589527 26.0179855,32.7589527 C32.1288218,32.7589527 37.0830764,27.8537891 37.0830764,21.8038255 C37.0830764,15.7518982 32.1288218,10.8467345 26.0179855,10.8467345 M26.0179855,12.30768 C31.3139127,12.30768 35.6240945,16.5668073 35.6240945,21.8038255 C35.6240945,27.03888 31.3139127,31.2980073 26.0179855,31.2980073 C20.7220582,31.2980073 16.41384,27.03888 16.41384,21.8038255 C16.41384,16.5668073 20.7220582,12.30768 26.0179855,12.30768" id="Fill-21" fill="#333333"></path>
                    <path d="M32.3403055,21.80304 C32.3403055,25.2610036 29.5107055,28.0631127 26.0173964,28.0631127 C22.5260509,28.0631127 19.6964509,25.2610036 19.6964509,21.80304 C19.6964509,18.3450764 22.5260509,15.5429673 26.0173964,15.5429673 C29.5107055,15.5429673 32.3403055,18.3450764 32.3403055,21.80304" id="Fill-23" fill="#FFFFFF"></path>
                    <path d="M26.0179855,15.5419855 C22.52664,15.5419855 19.6950764,18.3460582 19.6950764,21.8020582 C19.6950764,25.2600218 22.52664,28.0621309 26.0179855,28.0621309 C29.5093309,28.0621309 32.3408945,25.2600218 32.3408945,21.8020582 C32.3408945,18.3460582 29.5093309,15.5419855 26.0179855,15.5419855 M26.0179855,17.0029309 C28.7003127,17.0029309 30.8819127,19.1550764 30.8819127,21.8020582 C30.8819127,24.44904 28.7003127,26.6031491 26.0179855,26.6031491 C23.3376218,26.6031491 21.1540582,24.44904 21.1540582,21.8020582 C21.1540582,19.1550764 23.3376218,17.0029309 26.0179855,17.0029309" id="Fill-25" fill="#333333"></path>
                    <g id="Group-29" transform="translate(0.000000, 4.926291)">
                        <mask id="mask-2" fill="white">
                            <use xlink:href="#path-1"></use>
                        </mask>
                        <g id="Clip-28"></g>
                        <path d="M11.5571782,31.7976364 L7.01528727,31.7976364 C3.95201455,31.7976364 1.45819636,29.3018545 1.45819636,26.2346545 L1.45819636,7.51923636 C1.45819636,4.45203636 3.95201455,1.95625455 7.01528727,1.95625455 L45.0195055,1.95625455 C48.0827782,1.95625455 50.5765964,4.45203636 50.5765964,7.51923636 L50.5765964,26.2346545 C50.5765964,29.3018545 48.0827782,31.7976364 45.0195055,31.7976364 L17.1928145,31.7976364 L11.5571782,31.7976364 Z M15.5944145,31.7976364 L13.1575418,31.7976364 L15.5944145,31.7976364 Z M6.75608727,51.4556 C6.50670545,52.0113091 5.84692364,52.2626545 5.27943273,52.0132727 C5.00452364,51.8915273 4.79637818,51.6755273 4.69230545,51.3986545 C4.58626909,51.1276727 4.59608727,50.8331273 4.71586909,50.5719636 L12.5016873,33.2566182 L14.93856,33.2566182 L6.75608727,51.4556 Z M45.0195055,0.495309091 L7.01528727,0.495309091 C3.14888727,0.495309091 -0.000785454546,3.64694545 -0.000785454546,7.51923636 L-0.000785454546,26.2346545 C-0.000785454546,30.1069455 3.14888727,33.2566182 7.01528727,33.2566182 L10.9013236,33.2566182 L3.38452364,49.9710909 C3.10568727,50.5916 3.08605091,51.2847636 3.33150545,51.9229455 C3.57499636,52.5630909 4.05805091,53.0697091 4.69034182,53.3524727 C5.02808727,53.4977818 5.38154182,53.5684727 5.72714182,53.5684727 C6.71485091,53.5684727 7.65936,53.0029455 8.08350545,52.0545091 L16.53696,33.2566182 L45.0195055,33.2566182 C48.8878691,33.2566182 52.0355782,30.1069455 52.0355782,26.2346545 L52.0355782,7.51923636 C52.0355782,3.64694545 48.8878691,0.495309091 45.0195055,0.495309091 L45.0195055,0.495309091 Z" id="Fill-27" fill="#333333" mask="url(#mask-2)"></path>
                    </g>
                    <path d="M24.9038182,37.8716727 L24.9038182,57.0603273 C24.9038182,57.4982182 25.4006182,57.8556 26.0073818,57.8556 L26.0270182,57.8556 C26.6377091,57.8556 27.1345091,57.4982182 27.1345091,57.0603273 L27.1345091,37.8716727 L24.9038182,37.8716727 Z M26.0270182,58.9081091 L26.0073818,58.9081091 C24.5955273,58.9081091 23.4468,58.0794545 23.4468,57.0603273 L23.4468,37.3454182 C23.4468,37.0548 23.7727636,36.8191636 24.1753091,36.8191636 L27.8630182,36.8191636 C28.2655636,36.8191636 28.5915273,37.0548 28.5915273,37.3454182 L28.5915273,57.0603273 C28.5915273,58.0794545 27.4408364,58.9081091 26.0270182,58.9081091 L26.0270182,58.9081091 Z" id="Fill-30" fill="#333333"></path>
                </g>
            </g>
        </g>
    </g>
</svg>