<?xml version="1.0" encoding="UTF-8"?>
<svg width="108px" height="108px" viewBox="0 0 108 108" version="1.1" xmlns="http://www.w3.org/2000/svg" xmlns:xlink="http://www.w3.org/1999/xlink">
    <title>17</title>
    <defs>
        <polygon id="path-1" points="0 0.98 9.28452 0.98 9.28452 29.399804 0 29.399804"></polygon>
        <polygon id="path-3" points="0.000196 0.98 9.284716 0.98 9.284716 29.399804 0.000196 29.399804"></polygon>
        <polygon id="path-5" points="0.856708 0.98 10.141228 0.98 10.141228 29.399804 0.856708 29.399804"></polygon>
        <polygon id="path-7" points="0.856904 0.98 10.141424 0.98 10.141424 29.399804 0.856904 29.399804"></polygon>
        <polygon id="path-9" points="0.619164 0.98 9.903684 0.98 9.903684 29.399804 0.619164 29.399804"></polygon>
        <polygon id="path-11" points="0.619556 0.98 9.904076 0.98 9.904076 29.399804 0.619556 29.399804"></polygon>
        <polygon id="path-13" points="0.515872 0.98 9.8 0.98 9.8 29.399804 0.515872 29.399804"></polygon>
        <polygon id="path-15" points="0.516068 0.98 9.8 0.98 9.8 29.399804 0.516068 29.399804"></polygon>
    </defs>
    <g id="2021" stroke="none" stroke-width="1" fill="none" fill-rule="evenodd">
        <g id="GUEST_PC_Main" transform="translate(-381.000000, -683.000000)">
            <g id="17" transform="translate(381.000000, 683.000000)">
                <rect id="Rectangle-2-Copy-5" fill="#F6F6F6" x="0" y="0" width="107.8" height="107.8" rx="31.36"></rect>
                <g id="icon_17_m" transform="translate(25.480000, 39.200000)">
                    <polygon id="Fill-1" fill="#FFFFFF" points="7.73612 22.48512 51.06192 22.48512 51.06192 9.85488 7.73612 9.85488"></polygon>
                    <path d="M7.73612,22.48512 L51.06192,22.48512 L51.06192,9.85488 L7.73612,9.85488 L7.73612,22.48512 Z M9.20612,20.98572 L49.59192,20.98572 L49.59192,11.35428 L9.20612,11.35428 L9.20612,20.98572 Z" id="Fill-2" fill="#333333"></path>
                    <g id="Group-27" transform="translate(0.000000, 0.980000)">
                        <g id="Group-5">
                            <mask id="mask-2" fill="white">
                                <use xlink:href="#path-1"></use>
                            </mask>
                            <g id="Clip-4"></g>
                            <path d="M6.15832,29.399804 L3.1262,29.399804 C1.39944,29.399804 0,28.000364 0,26.273604 L0,4.106004 C0,2.379244 1.39944,0.979804 3.1262,0.979804 L6.15832,0.979804 C7.88508,0.979804 9.28452,2.379244 9.28452,4.106004 L9.28452,26.273604 C9.28452,28.000364 7.88508,29.399804 6.15832,29.399804" id="Fill-3" fill="#632ED8" mask="url(#mask-2)"></path>
                        </g>
                        <g id="Group-8">
                            <mask id="mask-4" fill="white">
                                <use xlink:href="#path-3"></use>
                            </mask>
                            <g id="Clip-7"></g>
                            <path d="M6.189876,0.979804 L3.095036,0.979804 C1.385916,0.979804 0.000196,2.392964 0.000196,4.137364 L0.000196,26.242244 C0.000196,27.984684 1.385916,29.399804 3.095036,29.399804 L6.189876,29.399804 C7.898996,29.399804 9.284716,27.984684 9.284716,26.242244 L9.284716,4.137364 C9.284716,2.392964 7.898996,0.979804 6.189876,0.979804 M6.189876,2.479204 C7.085596,2.479204 7.814716,3.224004 7.814716,4.137364 L7.814716,26.242244 C7.814716,27.155604 7.085596,27.898444 6.189876,27.898444 L3.095036,27.898444 C2.199316,27.898444 1.470196,27.155604 1.470196,26.242244 L1.470196,4.137364 C1.470196,3.224004 2.199316,2.479204 3.095036,2.479204 L6.189876,2.479204" id="Fill-6" fill="#333333" mask="url(#mask-4)"></path>
                        </g>
                        <g id="Group-11" transform="translate(6.880000, 0.000000)">
                            <mask id="mask-6" fill="white">
                                <use xlink:href="#path-5"></use>
                            </mask>
                            <g id="Clip-10"></g>
                            <path d="M7.015028,29.399804 L3.982908,29.399804 C2.256148,29.399804 0.856708,28.000364 0.856708,26.273604 L0.856708,4.106004 C0.856708,2.379244 2.256148,0.979804 3.982908,0.979804 L7.015028,0.979804 C8.741788,0.979804 10.141228,2.379244 10.141228,4.106004 L10.141228,26.273604 C10.141228,28.000364 8.741788,29.399804 7.015028,29.399804" id="Fill-9" fill="#FFC800" mask="url(#mask-6)"></path>
                        </g>
                        <g id="Group-14" transform="translate(6.880000, 0.000000)">
                            <mask id="mask-8" fill="white">
                                <use xlink:href="#path-7"></use>
                            </mask>
                            <g id="Clip-13"></g>
                            <path d="M7.046584,0.979804 L3.951744,0.979804 C2.242624,0.979804 0.856904,2.392964 0.856904,4.137364 L0.856904,26.242244 C0.856904,27.984684 2.242624,29.399804 3.951744,29.399804 L7.046584,29.399804 C8.755704,29.399804 10.141424,27.984684 10.141424,26.242244 L10.141424,4.137364 C10.141424,2.392964 8.755704,0.979804 7.046584,0.979804 M7.046584,2.479204 C7.942304,2.479204 8.671424,3.224004 8.671424,4.137364 L8.671424,26.242244 C8.671424,27.155604 7.942304,27.898444 7.046584,27.898444 L3.951744,27.898444 C3.056024,27.898444 2.326904,27.155604 2.326904,26.242244 L2.326904,4.137364 C2.326904,3.224004 3.056024,2.479204 3.951744,2.479204 L7.046584,2.479204" id="Fill-12" fill="#333333" mask="url(#mask-8)"></path>
                        </g>
                        <g id="Group-17" transform="translate(41.160000, 0.000000)">
                            <mask id="mask-10" fill="white">
                                <use xlink:href="#path-9"></use>
                            </mask>
                            <g id="Clip-16"></g>
                            <path d="M6.777484,29.399804 L3.745364,29.399804 C2.018604,29.399804 0.619164,28.000364 0.619164,26.273604 L0.619164,4.106004 C0.619164,2.379244 2.018604,0.979804 3.745364,0.979804 L6.777484,0.979804 C8.504244,0.979804 9.903684,2.379244 9.903684,4.106004 L9.903684,26.273604 C9.903684,28.000364 8.504244,29.399804 6.777484,29.399804" id="Fill-15" fill="#FFC800" mask="url(#mask-10)"></path>
                        </g>
                        <g id="Group-20" transform="translate(41.160000, 0.000000)">
                            <mask id="mask-12" fill="white">
                                <use xlink:href="#path-11"></use>
                            </mask>
                            <g id="Clip-19"></g>
                            <path d="M6.809236,0.979804 L3.714396,0.979804 C2.005276,0.979804 0.619556,2.392964 0.619556,4.137364 L0.619556,26.242244 C0.619556,27.984684 2.005276,29.399804 3.714396,29.399804 L6.809236,29.399804 C8.518356,29.399804 9.904076,27.984684 9.904076,26.242244 L9.904076,4.137364 C9.904076,2.392964 8.518356,0.979804 6.809236,0.979804 M6.809236,2.479204 C7.704956,2.479204 8.434076,3.224004 8.434076,4.137364 L8.434076,26.242244 C8.434076,27.155604 7.704956,27.898444 6.809236,27.898444 L3.714396,27.898444 C2.818676,27.898444 2.089556,27.155604 2.089556,26.242244 L2.089556,4.137364 C2.089556,3.224004 2.818676,2.479204 3.714396,2.479204 L6.809236,2.479204" id="Fill-18" fill="#333333" mask="url(#mask-12)"></path>
                        </g>
                        <g id="Group-23" transform="translate(49.000000, 0.000000)">
                            <mask id="mask-14" fill="white">
                                <use xlink:href="#path-13"></use>
                            </mask>
                            <g id="Clip-22"></g>
                            <path d="M6.674192,29.399804 L3.642072,29.399804 C1.915312,29.399804 0.515872,28.000364 0.515872,26.273604 L0.515872,4.106004 C0.515872,2.379244 1.915312,0.979804 3.642072,0.979804 L6.674192,0.979804 C8.400952,0.979804 9.800392,2.379244 9.800392,4.106004 L9.800392,26.273604 C9.800392,28.000364 8.400952,29.399804 6.674192,29.399804" id="Fill-21" fill="#632ED8" mask="url(#mask-14)"></path>
                        </g>
                        <g id="Group-26" transform="translate(49.000000, 0.000000)">
                            <mask id="mask-16" fill="white">
                                <use xlink:href="#path-15"></use>
                            </mask>
                            <g id="Clip-25"></g>
                            <path d="M6.705748,0.979804 L3.610908,0.979804 C1.901788,0.979804 0.516068,2.392964 0.516068,4.137364 L0.516068,26.242244 C0.516068,27.984684 1.901788,29.399804 3.610908,29.399804 L6.705748,29.399804 C8.414868,29.399804 9.800588,27.984684 9.800588,26.242244 L9.800588,4.137364 C9.800588,2.392964 8.414868,0.979804 6.705748,0.979804 M6.705748,2.479204 C7.601468,2.479204 8.330588,3.224004 8.330588,4.137364 L8.330588,26.242244 C8.330588,27.155604 7.601468,27.898444 6.705748,27.898444 L3.610908,27.898444 C2.715188,27.898444 1.986068,27.155604 1.986068,26.242244 L1.986068,4.137364 C1.986068,3.224004 2.715188,2.479204 3.610908,2.479204 L6.705748,2.479204" id="Fill-24" fill="#333333" mask="url(#mask-16)"></path>
                        </g>
                    </g>
                </g>
            </g>
        </g>
    </g>
</svg>